<svg id="dd" xmlns="http://www.w3.org/2000/svg" width="304" height="15.58" viewBox="0 0 304 15.58">
  <g id="Layer_1" data-name="Layer 1">
    <path id="Path_57054" data-name="Path 57054" d="M0,6.57H129.8c.436.81.9,1.64,1.4,2.44H0Z" fill="#2dafe5" fill-rule="evenodd"/>
    <path id="Path_57055" data-name="Path 57055" d="M163.88,6.57h130.7V9H162.48c.5-.8.965-1.63,1.4-2.44" transform="translate(9.415)" fill="#2dafe5" fill-rule="evenodd"/>
    <path id="Path_57056" data-name="Path 57056" d="M145.33,12.21A11.446,11.446,0,0,1,149.666,4c4.222-3.1,9.948-2.53,12.573-3a11.065,11.065,0,0,0,3.413-1s-3.226,8.23-6.411,11.16-8.838,2.06-11.193,2.89a6.358,6.358,0,0,0-2.78,1.53,6.358,6.358,0,0,0-2.78-1.53c-2.355-.83-7.967,0-11.193-2.89S124.78,0,124.78,0a11.065,11.065,0,0,0,3.413,1c2.624.48,8.351-.09,12.573,3a11.486,11.486,0,0,1,4.346,8.22A15.92,15.92,0,0,0,141.1,8.33a20.779,20.779,0,0,0-4.326-1.7,25.322,25.322,0,0,1,4.606,3,16.435,16.435,0,0,1,3.838,5.92,16.434,16.434,0,0,1,3.838-5.92,25.323,25.323,0,0,1,4.606-3,20.78,20.78,0,0,0-4.326,1.7,16,16,0,0,0-4,3.89" transform="translate(6.327)" fill="#2dafe5" fill-rule="evenodd"/>
  </g>
</svg>
