<svg xmlns="http://www.w3.org/2000/svg" width="23.61" height="23.61" viewBox="0 0 23.61 23.61">
  <g id="svgexport-10_46_" data-name="svgexport-10 (46)" transform="translate(0 -6.028)">
    <g id="Group_10" data-name="Group 10" transform="translate(0 6.028)">
      <g id="Group_9" data-name="Group 9">
        <g id="Group_8" data-name="Group 8">
          <path id="Path_3" data-name="Path 3" d="M99.192,350.322a2.539,2.539,0,1,0,2.539,2.54A2.539,2.539,0,0,0,99.192,350.322Zm0,3.95a1.411,1.411,0,1,1,1.411-1.411A1.411,1.411,0,0,1,99.192,354.272Z" transform="translate(-91.627 -331.791)" fill="#fff"/>
          <path id="Path_4" data-name="Path 4" d="M297.724,350.322a2.539,2.539,0,1,0,2.539,2.54A2.54,2.54,0,0,0,297.724,350.322Zm0,3.95a1.411,1.411,0,1,1,1.411-1.411A1.411,1.411,0,0,1,297.724,354.272Z" transform="translate(-279.957 -331.791)" fill="#fff"/>
          <path id="Path_5" data-name="Path 5" d="M23.5,9.8a.679.679,0,0,0-.438-.225L5.231,9.317,4.738,7.771A2.526,2.526,0,0,0,2.383,6.028H.548a.562.562,0,0,0,0,1.124H2.383A1.428,1.428,0,0,1,3.7,8.136L7.175,18.9,6.9,19.55A2.76,2.76,0,0,0,7.148,22,2.533,2.533,0,0,0,9.2,23.176H19.856a.562.562,0,0,0,0-1.124H9.2a1.39,1.39,0,0,1-1.15-.675,1.582,1.582,0,0,1-.137-1.349l.219-.506,11.53-1.237a3.041,3.041,0,0,0,2.6-2.361l1.315-5.65A.488.488,0,0,0,23.5,9.8ZM21.2,15.67a1.879,1.879,0,0,1-1.671,1.49L8.134,18.369,5.587,10.442l16.788.253Z" transform="translate(0 -6.028)" fill="#fff"/>
        </g>
      </g>
    </g>
  </g>
</svg>