<svg id="cash" xmlns="http://www.w3.org/2000/svg" width="31.688" height="32.781" viewBox="0 0 31.688 32.781">
  <g id="Group_8625" data-name="Group 8625">
    <g id="Group_8624" data-name="Group 8624">
      <path id="Path_56148" data-name="Path 56148" d="M38.648,19.2h-.49V14.782a2.076,2.076,0,0,0-.878-1.7v-.6A1.583,1.583,0,0,0,35.7,10.9h-.366l1.4-2.056a1.517,1.517,0,0,0-.4-2.1L26.847.263a1.508,1.508,0,0,0-2.1.4L16.559,12.706H14.28l.55-5.578a.165.165,0,0,1,.1-.139,3.545,3.545,0,0,0,1.729-1.408.164.164,0,0,1,.155-.073l3.575.354a.467.467,0,0,0,.092-.93l-3.575-.354a1.09,1.09,0,0,0-1.033.5A2.606,2.606,0,0,1,14.6,6.115a1.092,1.092,0,0,0-.7.921l-.559,5.67h-.594l.87-8.823a.578.578,0,0,1,.631-.519l7.224.715a.467.467,0,0,0,.092-.93l-7.224-.715a1.512,1.512,0,0,0-1.651,1.357l-.7,7.111H10.8a1.583,1.583,0,0,0-1.579,1.583v.41a2.079,2.079,0,0,0-1.208,1.886V30.7a2.076,2.076,0,0,0,2.072,2.076H36.087A2.076,2.076,0,0,0,38.159,30.7V26.286h.49a1.05,1.05,0,0,0,1.048-1.05V20.251A1.05,1.05,0,0,0,38.648,19.2ZM35.7,11.837h0a.648.648,0,0,1,.647.649v.238a2.073,2.073,0,0,0-.261-.017H34.109l.591-.869ZM25.52,1.188a.574.574,0,0,1,.37-.243A.585.585,0,0,1,26,.935a.573.573,0,0,1,.324.1l9.49,6.481a.58.58,0,0,1,.152.8l-2.983,4.386h-.716l1.462-2.15A1.094,1.094,0,0,0,33.779,9.4a2.615,2.615,0,0,1-.312-1.611,1.093,1.093,0,0,0-.472-1.048l-4.919-3.36a1.088,1.088,0,0,0-1.146-.056,2.6,2.6,0,0,1-1.611.3,1.1,1.1,0,0,0-1.057.471L18.4,12.706h-.716Zm.205,7.932a3.85,3.85,0,0,0-3.832,3.586H19.531l5.5-8.089h0a.166.166,0,0,1,.136-.073h.021a3.537,3.537,0,0,0,2.19-.405.164.164,0,0,1,.171.01L32.47,7.51a.165.165,0,0,1,.072.155,3.557,3.557,0,0,0,.425,2.191.166.166,0,0,1-.009.173l-1.82,2.676h-1.58A3.85,3.85,0,0,0,25.725,9.12Zm2.9,3.586H22.828a2.909,2.909,0,0,1,5.794,0Zm-18.474-.221a.649.649,0,0,1,.647-.649h1.1l-.086.869H10.149Zm-1.208,2.3a1.142,1.142,0,0,1,1.14-1.142H36.087a1.142,1.142,0,0,1,1.139,1.142v1.3H8.94ZM37.226,30.7a1.142,1.142,0,0,1-1.139,1.142H10.08A1.142,1.142,0,0,1,8.94,30.7v-1.3h2.514a.467.467,0,0,0,0-.934H8.94V17.013H37.226V19.2H32.795a3.539,3.539,0,0,0-3.18,2l-.006.012-.014.031a3.526,3.526,0,0,0-.176.452h0a3.545,3.545,0,0,0,3.376,4.594h4.432v2.188H14.438a.467.467,0,0,0,0,.934H37.226Zm1.537-5.469a.116.116,0,0,1-.116.116H32.795a2.6,2.6,0,0,1-2.288-1.366q-.03-.055-.058-.112-.055-.114-.1-.234a2.616,2.616,0,0,1,0-1.792q.044-.12.1-.234.028-.057.058-.112a2.6,2.6,0,0,1,2.288-1.366h5.853a.116.116,0,0,1,.116.116Z" transform="translate(-8.008 0)"/>
    </g>
  </g>
  <g id="Group_8627" data-name="Group 8627" transform="translate(22.978 20.831)">
    <g id="Group_8626" data-name="Group 8626">
      <path id="Path_56149" data-name="Path 56149" d="M369.988,325.627a1.907,1.907,0,1,0,1.907,1.907A1.909,1.909,0,0,0,369.988,325.627Zm0,2.874a.967.967,0,1,1,.967-.967A.968.968,0,0,1,369.988,328.5Z" transform="translate(-368.081 -325.627)"/>
    </g>
  </g>
</svg>
