<svg xmlns="http://www.w3.org/2000/svg" width="15.456" height="22.412" viewBox="0 0 15.456 22.412">
  <g id="clock_2" data-name="clock 2" opacity="0.5">
    <g id="Solid">
      <path id="Path_847" data-name="Path 847" d="M150.326,352a2.25,2.25,0,0,1-1.58,1.171c-2.176.677-3.522,1.643-3.783,2.693h10.726c-.261-1.05-1.607-2.016-3.783-2.693A2.25,2.25,0,0,1,150.326,352Z" transform="translate(-142.598 -336.157)" fill="#f28b2e"/>
      <path id="Path_848" data-name="Path 848" d="M160.1,128a8.646,8.646,0,0,0,3.052,3.214,3.5,3.5,0,0,1,1.58,2.406,3.5,3.5,0,0,1,1.58-2.406A8.646,8.646,0,0,0,169.364,128Z" transform="translate(-157.004 -122.977)" fill="#f28b2e"/>
      <path id="Path_849" data-name="Path 849" d="M106.141,33.54a9.144,9.144,0,0,0,4.543-7.608h0a.773.773,0,0,0,.773-.773V24H96v1.111a.82.82,0,0,0,.773.819v0a9.144,9.144,0,0,0,4.543,7.608,1.978,1.978,0,0,1,0,3.332,9.144,9.144,0,0,0-4.543,7.608v0A.82.82,0,0,0,96,45.3v1.111h15.456V45.252a.773.773,0,0,0-.773-.773h0a9.144,9.144,0,0,0-4.543-7.608A1.978,1.978,0,0,1,106.141,33.54Zm-1.684,1.666a2.738,2.738,0,0,0,1.268,2.317,8.345,8.345,0,0,1,4.186,6.957H97.546a8.345,8.345,0,0,1,4.186-6.957,2.751,2.751,0,0,0,0-4.634,8.345,8.345,0,0,1-4.186-6.957h12.365a8.345,8.345,0,0,1-4.186,6.957A2.738,2.738,0,0,0,104.457,35.206Z" transform="translate(-96 -24)"/>
      <path id="Path_850" data-name="Path 850" d="M248.862,265.61a.362.362,0,0,0,.362-.362v-.386a.362.362,0,0,0-.725,0v.386A.362.362,0,0,0,248.862,265.61Z" transform="translate(-241.134 -252.884)" fill="#f28b2e"/>
      <path id="Path_851" data-name="Path 851" d="M248.5,305.248a.362.362,0,0,0,.725,0v-.386a.362.362,0,1,0-.725,0Z" transform="translate(-241.134 -290.952)" fill="#f28b2e"/>
    </g>
  </g>
</svg>
