<svg id="credit" xmlns="http://www.w3.org/2000/svg" width="35" height="35" viewBox="0 0 35 35">
  <path id="Path_56151" data-name="Path 56151" d="M3.731,24.37h0l2.1,2.1v5.615A2.92,2.92,0,0,0,8.748,35H32.088a2.92,2.92,0,0,0,2.917-2.917V17.5a2.912,2.912,0,0,0-2.713-2.9,2.922,2.922,0,0,0-.5-3.431L24.366,3.741l0-.006h-.005L21.481.854a2.917,2.917,0,0,0-4.121,0L.854,17.365a2.936,2.936,0,0,0,0,4.131ZM21.476,2.5l1.648,1.649L12.694,14.585h-3.3ZM5.836,21.443,4.144,23.134,2.5,21.486l3.34-3.343Zm-.867,2.517.867-.867v1.734ZM33.838,17.5V32.085a1.75,1.75,0,0,1-1.75,1.75H8.753A1.75,1.75,0,0,1,7,32.085V17.5a1.75,1.75,0,0,1,1.75-1.75H32.088A1.75,1.75,0,0,1,33.838,17.5ZM30.97,14.476l-.107.109H14.343l9.606-9.61L30.968,12a1.759,1.759,0,0,1,0,2.479ZM1.681,18.188l16.5-16.509a1.79,1.79,0,0,1,2.469,0L7.4,14.935a2.917,2.917,0,0,0-1.211,1.21L1.672,20.66a1.765,1.765,0,0,1,.009-2.472Z" transform="translate(-0.005 -0.002)" fill="#707070"/>
  <path id="Path_56152" data-name="Path 56152" d="M15.186,34.745h3.559a1.186,1.186,0,0,0,1.186-1.186V31.186A1.186,1.186,0,0,0,18.745,30H15.186A1.186,1.186,0,0,0,14,31.186v2.373A1.186,1.186,0,0,0,15.186,34.745Zm0-3.559h3.559v2.373H15.186Z" transform="translate(-5.863 -12.546)" fill="#707070"/>
  <path id="Path_56153" data-name="Path 56153" d="M14.593,42.373a.593.593,0,0,0,.593-.593V40.593a.593.593,0,1,0-1.186,0v1.186A.593.593,0,0,0,14.593,42.373Z" transform="translate(-5.84 -16.695)" fill="#707070"/>
  <path id="Path_56154" data-name="Path 56154" d="M18.593,40a.593.593,0,0,0-.593.593v1.186a.593.593,0,0,0,1.186,0V40.593A.593.593,0,0,0,18.593,40Z" transform="translate(-7.508 -16.695)" fill="#707070"/>
  <path id="Path_56155" data-name="Path 56155" d="M22,40.593v1.186a.593.593,0,0,0,1.186,0V40.593a.593.593,0,1,0-1.186,0Z" transform="translate(-9.176 -16.695)" fill="#707070"/>
  <path id="Path_56156" data-name="Path 56156" d="M26.593,40a.593.593,0,0,0-.593.593v1.186a.593.593,0,0,0,1.186,0V40.593A.593.593,0,0,0,26.593,40Z" transform="translate(-10.844 -16.695)" fill="#707070"/>
  <path id="Path_56157" data-name="Path 56157" d="M30.593,42.373a.593.593,0,0,0,.593-.593V40.593a.593.593,0,1,0-1.186,0v1.186A.593.593,0,0,0,30.593,42.373Z" transform="translate(-12.512 -16.695)" fill="#707070"/>
  <path id="Path_56158" data-name="Path 56158" d="M38.593,40a.593.593,0,0,0-.593.593v1.186a.593.593,0,0,0,1.186,0V40.593A.593.593,0,0,0,38.593,40Z" transform="translate(-15.847 -16.695)" fill="#707070"/>
  <path id="Path_56159" data-name="Path 56159" d="M42.593,40a.593.593,0,0,0-.593.593v1.186a.593.593,0,0,0,1.186,0V40.593A.593.593,0,0,0,42.593,40Z" transform="translate(-17.515 -16.695)" fill="#707070"/>
  <path id="Path_56160" data-name="Path 56160" d="M46.593,40a.593.593,0,0,0-.593.593v1.186a.593.593,0,0,0,1.186,0V40.593A.593.593,0,0,0,46.593,40Z" transform="translate(-19.183 -16.695)" fill="#707070"/>
  <path id="Path_56161" data-name="Path 56161" d="M50.593,40a.593.593,0,0,0-.593.593v1.186a.593.593,0,0,0,1.186,0V40.593A.593.593,0,0,0,50.593,40Z" transform="translate(-20.931 -16.695)" fill="#707070"/>
  <path id="Path_56162" data-name="Path 56162" d="M16.966,46H14.593a.593.593,0,0,0,0,1.186h2.373a.593.593,0,0,0,0-1.186Z" transform="translate(-5.851 -19.182)" fill="#707070"/>
  <path id="Path_56163" data-name="Path 56163" d="M24.966,46H22.593a.593.593,0,0,0,0,1.186h2.373a.593.593,0,0,0,0-1.186Z" transform="translate(-9.192 -19.182)" fill="#707070"/>
  <path id="Path_56164" data-name="Path 56164" d="M16.966,50H14.593a.593.593,0,0,0,0,1.186h2.373a.593.593,0,0,0,0-1.186Z" transform="translate(-5.851 -20.931)" fill="#707070"/>
  <path id="Path_56165" data-name="Path 56165" d="M24.966,50H22.593a.593.593,0,0,0,0,1.186h2.373a.593.593,0,0,0,0-1.186Z" transform="translate(-9.192 -20.931)" fill="#707070"/>
  <path id="Path_56166" data-name="Path 56166" d="M32.966,46H30.593a.593.593,0,0,0,0,1.186h2.373a.593.593,0,0,0,0-1.186Z" transform="translate(-12.534 -19.182)" fill="#707070"/>
</svg>
