<svg xmlns="http://www.w3.org/2000/svg" width="22" height="20" viewBox="0 0 22 20">
  <g id="fav_1_" data-name="fav (2)" transform="translate(0 -20.29)">
    <g id="Group_9133" data-name="Group 9133" transform="translate(0 20.29)">
      <g id="Group_9132" data-name="Group 9132" transform="translate(0 0)">
        <path id="Path_57255" data-name="Path 57255" d="M11.071,40.29A1.024,1.024,0,0,1,10.352,40c-.014-.014-1.688-1.661-8.45-8.54l-.047-.048c-.07-.07-.1-.11-.138-.151A6.593,6.593,0,0,1,0,26.818,6.48,6.48,0,0,1,6.416,20.29,6.334,6.334,0,0,1,11,22.253a6.336,6.336,0,0,1,4.584-1.963A6.546,6.546,0,0,1,20,31.546c-.019.022-.036.04-.049.053-6.817,6.935-8.109,8.341-8.122,8.355a1.036,1.036,0,0,1-.731.336Zm-4.654-19.3A5.785,5.785,0,0,0,.689,26.818a5.9,5.9,0,0,0,1.543,3.972c.034.04.058.068.109.12l.048.049c6.76,6.878,8.425,8.516,8.44,8.531a.344.344,0,0,0,.239.1h.014a.347.347,0,0,0,.243-.112c.01-.011,1.314-1.429,8.137-8.371l.05-.054a5.843,5.843,0,0,0-3.928-10.06A5.657,5.657,0,0,0,11.261,23L11,23.309,10.739,23A5.656,5.656,0,0,0,6.417,20.991Z" transform="translate(0 -20.29)"  fill="#fff"/>
      </g>
    </g>
  </g>
</svg>