<svg id="_23302" data-name="23302" xmlns="http://www.w3.org/2000/svg" width="21" height="21" viewBox="0 0 21 21">
  <path id="Path_383" data-name="Path 383" d="M276.4,211.479h-8.583a.686.686,0,0,0-.686.686v2.742a.686.686,0,0,0,.686.686h4.833a6.453,6.453,0,0,1-2.777,3.255l2.061,3.568a10.316,10.316,0,0,0,5.261-9.022,6.955,6.955,0,0,0-.118-1.347A.689.689,0,0,0,276.4,211.479Z" transform="translate(-256.195 -202.83)" fill="#167ee6"/>
  <path id="Path_384" data-name="Path 384" d="M43.518,337.052a6.4,6.4,0,0,1-5.539-3.2L34.411,335.9a10.513,10.513,0,0,0,14.367,3.856v0l-2.061-3.568A6.356,6.356,0,0,1,43.518,337.052Z" transform="translate(-32.997 -320.169)" fill="#12b347"/>
  <path id="Path_385" data-name="Path 385" d="M261.261,394.352v0l-2.061-3.568a6.356,6.356,0,0,1-3.2.865v4.117A10.5,10.5,0,0,0,261.261,394.352Z" transform="translate(-245.507 -374.761)" fill="#0f993e"/>
  <path id="Path_386" data-name="Path 386" d="M4.117,133.375a6.357,6.357,0,0,1,.865-3.2l-3.568-2.056a10.473,10.473,0,0,0,0,10.511l3.568-2.056A6.357,6.357,0,0,1,4.117,133.375Z" transform="translate(0 -122.875)" fill="#ffd500"/>
  <path id="Path_387" data-name="Path 387" d="M43.518,4.117a6.375,6.375,0,0,1,4.066,1.46.684.684,0,0,0,.92-.041l1.943-1.943a.691.691,0,0,0-.04-1.011,10.5,10.5,0,0,0-16,2.684l3.568,2.056A6.4,6.4,0,0,1,43.518,4.117Z" transform="translate(-32.997 0)" fill="#ff4b26"/>
  <path id="Path_388" data-name="Path 388" d="M260.066,5.577a.683.683,0,0,0,.92-.041l1.943-1.943a.691.691,0,0,0-.04-1.011A10.489,10.489,0,0,0,256,0V4.117A6.375,6.375,0,0,1,260.066,5.577Z" transform="translate(-245.511 0)" fill="#d93f21"/>
</svg>
