<svg xmlns="http://www.w3.org/2000/svg" width="220.351" height="121.032" viewBox="0 0 220.351 121.032">
  <g id="Group_8906" data-name="Group 8906" transform="translate(-515.331 -279.561)">
    <g id="Group_8846" data-name="Group 8846" transform="translate(491 225)">
      <path id="Union_1" data-name="Union 1" d="M58.675,89.654A13.885,13.885,0,0,1,45.468,71.51H13.875a13.875,13.875,0,1,1,0-27.751h7.1A13.875,13.875,0,0,1,30.99,20.279H63.6A13.88,13.88,0,0,1,75.915,0H178.663a13.875,13.875,0,1,1,0,27.75H146.05a13.815,13.815,0,0,1,1.563,6.4h58.862a13.875,13.875,0,0,1,0,27.751H161.423a13.875,13.875,0,1,1,0,27.75Z" transform="translate(24.331 85.939)" fill="#fafafa"/>
      <g id="noti_1_" data-name="noti (1)" transform="translate(81.686 54.561)">
        <path id="Path_57073" data-name="Path 57073" d="M193.465,405.361a17.138,17.138,0,1,1-34.277,0l17.167-8.822Zm0,0" transform="translate(-123.506 -307.376)" fill="#e58e13"/>
        <path id="Path_57074" data-name="Path 57074" d="M234.8,459.285a17.179,17.179,0,0,1-11.727,11.233,17.153,17.153,0,0,1-8.741-5.735,3.389,3.389,0,0,1,2.661-5.5Zm0,0" transform="translate(-165.668 -356.013)" fill="#f7d360"/>
        <path id="Path_57075" data-name="Path 57075" d="M127.109,110.961l-36.822,7.963-51.681-7.963c4.055,0,6.349-2.121,7.65-5.639,6.3-16.982-10.474-66.474,36.6-66.474s30.3,49.492,36.6,66.474c1.3,3.518,3.6,5.639,7.65,5.639Zm0,0" transform="translate(-30.037 -30.113)" fill="#f7d360"/>
        <path id="Path_57076" data-name="Path 57076" d="M106.14,368.128a8.569,8.569,0,0,1-8.568,8.568H9.068a8.569,8.569,0,0,1,0-17.137h88.5a8.568,8.568,0,0,1,8.568,8.569Zm0,0" transform="translate(-0.5 -278.71)" fill="#e58e13"/>
        <path id="Path_57077" data-name="Path 57077" d="M119.465,105.331h-46a8.78,8.78,0,0,1-8.771-9.062C65.343,75.3,62,39.255,82.521,38.859c-56.334.292-20.323,72.11-43.907,72.11h88.5c-4.053,0-6.346-2.121-7.65-5.639Zm0,0" transform="translate(-30.044 -30.122)" fill="#e58e13"/>
        <path id="Path_57078" data-name="Path 57078" d="M191.5,368.128a8.569,8.569,0,0,1-8.568,8.568H119.19a8.569,8.569,0,1,1,0-17.137h63.741a8.568,8.568,0,0,1,8.568,8.569Zm0,0" transform="translate(-85.86 -278.71)" fill="#f7d360"/>
        <path id="Path_57079" data-name="Path 57079" d="M214.01,9.391c.018-.216.025-.435.025-.656a8.735,8.735,0,1,0-17.47,0c0,.221.007.44.025.656" transform="translate(-152.48 0)" fill="#e58e13"/>
        <g id="Group_8847" data-name="Group 8847" transform="translate(0.762 5.995)">
          <path id="Path_57080" data-name="Path 57080" d="M372.386,58.381a1.762,1.762,0,0,1-1.762-1.762c0-8.155-2.1-15.115-6.231-20.687a22.911,22.911,0,0,0-6.255-5.967,1.762,1.762,0,0,1,1.709-3.081,25.752,25.752,0,0,1,7.251,6.782c3.216,4.274,7.05,11.726,7.05,22.953a1.763,1.763,0,0,1-1.763,1.762Zm0,0" transform="translate(-277.785 -26.664)" fill="#e6e6e6"/>
          <path id="Path_57081" data-name="Path 57081" d="M426.31,50.709a1.762,1.762,0,0,1-1.762-1.762c0-11.248-6.661-15.72-6.945-15.9a1.762,1.762,0,0,1,1.9-2.968c.35.222,8.569,5.606,8.569,18.872A1.762,1.762,0,0,1,426.31,50.709Zm0,0" transform="translate(-323.955 -29.094)" fill="#e6e6e6"/>
          <path id="Path_57082" data-name="Path 57082" d="M40.129,58.379a1.762,1.762,0,0,1-1.762-1.762c0-11.228,3.834-18.68,7.05-22.953a25.748,25.748,0,0,1,7.252-6.782,1.762,1.762,0,0,1,1.709,3.082,22.926,22.926,0,0,0-6.255,5.967c-4.135,5.571-6.231,12.531-6.231,20.687a1.764,1.764,0,0,1-1.763,1.762Zm0,0" transform="translate(-30.614 -26.662)" fill="#e6e6e6"/>
          <path id="Path_57083" data-name="Path 57083" d="M5.649,50.707a1.762,1.762,0,0,1-1.762-1.762c0-13.266,8.219-18.65,8.569-18.872a1.762,1.762,0,0,1,1.9,2.968c-.292.191-6.944,4.665-6.944,15.9a1.762,1.762,0,0,1-1.762,1.762Zm0,0" transform="translate(-3.887 -29.092)" fill="#e6e6e6"/>
        </g>
      </g>
    </g>
  </g>
</svg>
