<svg xmlns="http://www.w3.org/2000/svg" width="267.75" height="139.009" viewBox="0 0 267.75 139.009">
  <g id="Group_8846" data-name="Group 8846" transform="translate(-53.291 -428.742)">
    <path id="Union_1" data-name="Union 1" d="M59.792,103.752a13,13,0,0,1-13-13V86.893H13a13,13,0,0,1-13-13V66.173a13,13,0,0,1,13-13H23.4A12.944,12.944,0,0,1,20.8,45.36V37.641a13,13,0,0,1,13-13H75.989a12.992,12.992,0,0,1-.6-3.921V13a13,13,0,0,1,13-13h132.57a13,13,0,0,1,13,13v7.72a13,13,0,0,1-13,13H178.764a12.991,12.991,0,0,1,.6,3.921V41.5H254.75a13,13,0,0,1,13,13v7.72a13,13,0,0,1-13,13h-52a12.942,12.942,0,0,1,2.608,7.812v7.72a13,13,0,0,1-13,13Z" transform="translate(53.291 463.998)" fill="#fafafa"/>
    <g id="svgexport-7_6_" data-name="svgexport-7 (6)" transform="translate(115.819 428.742)">
      <g id="Group_8864" data-name="Group 8864" transform="translate(26.753 0)">
        <path id="Path_57085" data-name="Path 57085" d="M100.454,60.591a4.459,4.459,0,0,1-3.986-6.457L114.3,18.461a4.461,4.461,0,0,1,7.982,3.986L104.449,58.12A4.474,4.474,0,0,1,100.454,60.591Z" transform="translate(-95.992 -15.998)" fill="#455a64"/>
        <path id="Path_57086" data-name="Path 57086" d="M342.3,60.614a4.458,4.458,0,0,1-3.986-2.461L320.482,22.479a4.461,4.461,0,1,1,7.982-3.986L346.3,54.166a4.467,4.467,0,0,1-2,5.984A4.607,4.607,0,0,1,342.3,60.614Z" transform="translate(-257.579 -16.021)" fill="#455a64"/>
      </g>
      <path id="Path_57087" data-name="Path 57087" d="M155.924,209.715A4.485,4.485,0,0,0,152.4,208H36.463a4.456,4.456,0,0,0-4.325,5.538l17.837,71.346a4.462,4.462,0,0,0,4.325,3.38h80.265a4.455,4.455,0,0,0,4.325-3.38l17.837-71.346A4.488,4.488,0,0,0,155.924,209.715Z" transform="translate(-23.086 -154.492)" fill="#e58e13"/>
      <path id="Path_57088" data-name="Path 57088" d="M138.234,144H4.459A4.461,4.461,0,0,0,0,148.462V166.3a4.461,4.461,0,0,0,4.459,4.459H138.234a4.461,4.461,0,0,0,4.459-4.459V148.462A4.461,4.461,0,0,0,138.234,144Z" transform="translate(0 -108.328)" fill="#f7d360"/>
      <g id="Group_8865" data-name="Group 8865" transform="translate(44.591 80.266)">
        <path id="Path_57089" data-name="Path 57089" d="M244.459,339.676A4.461,4.461,0,0,1,240,335.217V308.462a4.459,4.459,0,1,1,8.918,0v26.755A4.461,4.461,0,0,1,244.459,339.676Z" transform="translate(-217.704 -304.003)" fill="#fafafa"/>
        <path id="Path_57090" data-name="Path 57090" d="M164.459,339.676A4.461,4.461,0,0,1,160,335.217V308.462a4.459,4.459,0,1,1,8.918,0v26.755A4.461,4.461,0,0,1,164.459,339.676Z" transform="translate(-160 -304.003)" fill="#fafafa"/>
        <path id="Path_57091" data-name="Path 57091" d="M324.459,339.676A4.461,4.461,0,0,1,320,335.217V308.462a4.459,4.459,0,1,1,8.918,0v26.755A4.461,4.461,0,0,1,324.459,339.676Z" transform="translate(-275.409 -304.003)" fill="#fafafa"/>
      </g>
    </g>
  </g>
</svg>
