<svg xmlns="http://www.w3.org/2000/svg" width="22" height="22" viewBox="0 0 22 22">
  <g id="Group_109" data-name="Group 109" transform="translate(0.2 0.2)">
    <path id="Vector" d="M1.275,2.55A1.275,1.275,0,1,1,2.55,1.275,1.275,1.275,0,0,1,1.275,2.55Z" transform="translate(14.909 3.408)" fill="#0b120b"/>
    <path id="Vector-2" data-name="Vector" d="M5.456,10.914a5.481,5.481,0,0,1-1.064-.1A5.457,5.457,0,0,1,5.457,0,5.456,5.456,0,0,1,7.545,10.5,5.429,5.429,0,0,1,5.456,10.914Zm0-9a3.537,3.537,0,1,0,1.355.269A3.545,3.545,0,0,0,5.459,1.915Z" transform="translate(5.054 4.899)" fill="#0b120b"/>
    <path id="Vector-3" data-name="Vector" d="M11,22c-3.009,0-3.362-.012-4.536-.066a8.05,8.05,0,0,1-2.67-.512A5.625,5.625,0,0,1,.578,18.2a8.046,8.046,0,0,1-.512-2.668C.013,14.349,0,13.956,0,11s.013-3.35.066-4.536A8.05,8.05,0,0,1,.578,3.8,5.625,5.625,0,0,1,3.8.578,8.05,8.05,0,0,1,6.465.066C7.651.013,8.044,0,11,0c3.014,0,3.367.012,4.534.068a8.006,8.006,0,0,1,2.67.51A5.625,5.625,0,0,1,21.422,3.8a8.05,8.05,0,0,1,.512,2.67C21.988,7.639,22,7.992,22,11s-.012,3.361-.066,4.534a8.049,8.049,0,0,1-.51,2.67,5.625,5.625,0,0,1-3.218,3.218,8.05,8.05,0,0,1-2.67.512C14.361,21.988,14.008,22,11,22ZM11,1.982c-2.929,0-3.279.011-4.445.064a6.1,6.1,0,0,0-2.043.378A3.645,3.645,0,0,0,2.424,4.513a6.1,6.1,0,0,0-.378,2.043C1.993,7.722,1.982,8.071,1.982,11s.011,3.279.064,4.445a6.094,6.094,0,0,0,.378,2.041,3.645,3.645,0,0,0,2.089,2.089,6.059,6.059,0,0,0,2.043.378c1.131.053,1.474.064,4.445.064s3.314-.011,4.445-.064a6.055,6.055,0,0,0,2.041-.378,3.645,3.645,0,0,0,2.089-2.089,6.055,6.055,0,0,0,.378-2.041c.053-1.131.064-1.474.064-4.445s-.011-3.314-.064-4.445a6.059,6.059,0,0,0-.378-2.043,3.645,3.645,0,0,0-2.089-2.089,6.094,6.094,0,0,0-2.041-.378C14.279,1.993,13.93,1.982,11,1.982Z" transform="translate(-0.2 -0.2)" fill="#0b120b"/>
  </g>
</svg>
