<svg xmlns="http://www.w3.org/2000/svg" xmlns:xlink="http://www.w3.org/1999/xlink" width="240" height="190.98" viewBox="0 0 240 190.98">
  <defs>
    <linearGradient id="linear-gradient" x1="0.5" y1="1" x2="0.5" gradientUnits="objectBoundingBox">
      <stop offset="0" stop-color="#da5466"/>
      <stop offset="1" stop-color="#f4929c"/>
    </linearGradient>
  </defs>
  <g id="Group_23386" data-name="Group 23386" transform="translate(-368 -392.235)">
    <path id="Union_1" data-name="Union 1" d="M54.942,93a13,13,0,0,1-13-13V77.887H13a13,13,0,0,1-13-13V60.663a13,13,0,0,1,13-13h8.677a12.946,12.946,0,0,1-3.036-8.35V35.087a13,13,0,0,1,13-13H68.513a12.961,12.961,0,0,1-.94-4.862V13a13,13,0,0,1,13-13H196.709a13,13,0,0,1,13,13v4.225a13,13,0,0,1-13,13H159.837a12.961,12.961,0,0,1,.94,4.862V37.2H227a13,13,0,0,1,13,13v4.225a13,13,0,0,1-13,13H181.042a12.949,12.949,0,0,1,3.036,8.35V80a13,13,0,0,1-13,13Z" transform="translate(368 466.285)" fill="#fafafa"/>
    <g id="Unboxing" transform="translate(420.422 392.235)">
      <path id="Path_57353" data-name="Path 57353" d="M65.656,26.312h0A12.656,12.656,0,0,0,53,13.656h0A12.656,12.656,0,0,0,65.656,1h0A12.656,12.656,0,0,0,78.312,13.656h0A12.656,12.656,0,0,0,65.656,26.312Z" transform="translate(100.147 1.531)" fill="#f6b756"/>
      <path id="Path_57354" data-name="Path 57354" d="M13.656,29.312h0A12.656,12.656,0,0,0,1,16.656H1A12.656,12.656,0,0,0,13.656,4h0A12.656,12.656,0,0,0,26.312,16.656h0A12.656,12.656,0,0,0,13.656,29.312Z" transform="translate(0 6.125)" fill="#f6b756"/>
      <path id="Path_57355" data-name="Path 57355" d="M35.656,5.062H33.125V2.531a2.531,2.531,0,0,0-5.062,0V5.062H25.531a2.531,2.531,0,0,0,0,5.062h2.531v2.531a2.531,2.531,0,0,0,5.062,0V10.125h2.531a2.531,2.531,0,1,0,0-5.062Z" transform="translate(41.75)" fill="#f6b756"/>
      <path id="Path_57356" data-name="Path 57356" d="M56.656,16.062H54.125V13.531a2.531,2.531,0,1,0-5.062,0v2.531H46.531a2.531,2.531,0,1,0,0,5.062h2.531v2.531a2.531,2.531,0,1,0,5.062,0V21.125h2.531a2.531,2.531,0,0,0,0-5.062Z" transform="translate(81.602 16.843)" fill="#f6b756"/>
      <path id="Path_57357" data-name="Path 57357" d="M26.656,20.062H24.125V17.531a2.531,2.531,0,0,0-5.062,0v2.531H16.531a2.531,2.531,0,1,0,0,5.062h2.531v2.531a2.531,2.531,0,0,0,5.062,0V25.125h2.531a2.531,2.531,0,1,0,0-5.062Z" transform="translate(24.67 22.968)" fill="#f6b756"/>
    </g>
    <g id="Price_Tag" data-name="Price Tag" transform="matrix(0.819, 0.574, -0.574, 0.819, 490.01, 414.181)">
      <path id="Path_57680" data-name="Path 57680" d="M93.333,127.381H15V42.333l30.214-28.2A11.616,11.616,0,0,1,53.16,11h0a11.616,11.616,0,0,1,7.654,2.887l32.52,28.446Z" transform="translate(0 13.619)" fill="url(#linear-gradient)"/>
      <path id="Path_57681" data-name="Path 57681" d="M34.476,22.952a4.476,4.476,0,1,1,4.476-4.476A4.476,4.476,0,0,1,34.476,22.952Zm0-4.476Zm0,0Zm0,0Zm0,0Zm0,0Zm0,0Zm0,0Zm0,0Z" transform="translate(18.571 17.333)" fill="#42455e"/>
      <path id="Path_57682" data-name="Path 57682" d="M26.235,78.7a2.239,2.239,0,0,1-1.768-3.6L55.8,34.812a2.238,2.238,0,0,1,3.536,2.73L28,77.829A2.238,2.238,0,0,1,26.235,78.7Z" transform="translate(11.146 42.156)" fill="#fff"/>
      <path id="Path_57683" data-name="Path 57683" d="M42.952,63.9A8.952,8.952,0,1,1,51.9,54.952,8.952,8.952,0,0,1,42.952,63.9Zm0-13.429a4.476,4.476,0,1,0,4.476,4.476A4.476,4.476,0,0,0,42.952,50.476Z" transform="translate(23.524 56.952)" fill="#fff"/>
      <path id="Path_57684" data-name="Path 57684" d="M30.952,51.9A8.952,8.952,0,1,1,39.9,42.952,8.952,8.952,0,0,1,30.952,51.9Zm0-13.429a4.476,4.476,0,1,0,4.476,4.476A4.476,4.476,0,0,0,30.952,38.476Z" transform="translate(8.667 42.095)" fill="#fff"/>
      <rect id="Rectangle_3092" data-name="Rectangle 3092" width="78" height="7" transform="translate(15 134)" fill="#cf4055"/>
      <path id="Path_57685" data-name="Path 57685" d="M61.548,19.024A18.755,18.755,0,0,1,56.064,32.34l-.112.112L52.6,29.543h0l.291-.313a14.346,14.346,0,0,0,4.185-10.206,14.548,14.548,0,1,0-29.1,0A14.257,14.257,0,0,0,32.162,29.1l.492.47A14.369,14.369,0,0,0,40.6,33.348a13,13,0,0,0,1.925.224,2.238,2.238,0,1,1,0,4.476,18.106,18.106,0,0,1-2.574-.179,18.576,18.576,0,0,1-10.586-5.148l-.4-.4A18.733,18.733,0,0,1,23.5,19.024a19.024,19.024,0,0,1,38.048,0Z" transform="translate(10.524 0)" fill="#c7cdd8"/>
    </g>
  </g>
</svg>
