<svg id="Input" xmlns="http://www.w3.org/2000/svg" width="16.012" height="16.012" viewBox="0 0 16.012 16.012">
  <g id="attach_1_" data-name="attach (1)" transform="translate(0 0)">
    <g id="Group_7995" data-name="Group 7995">
      <path id="Path_54592" data-name="Path 54592" d="M14.513,15.288a4.932,4.932,0,0,0-7.239,0l-6.2,6.556a4.024,4.024,0,0,0,0,5.463,3.523,3.523,0,0,0,5.17,0L11.928,21.3a2.411,2.411,0,0,0,0-3.278,2.114,2.114,0,0,0-3.1,0l-3.719,3.93a.8.8,0,0,0,0,1.093.7.7,0,0,0,1.034,0l3.719-3.93a.7.7,0,0,1,1.034,0,.8.8,0,0,1,0,1.093L5.206,26.214a2.114,2.114,0,0,1-3.1,0,2.415,2.415,0,0,1,0-3.278l6.2-6.556a3.523,3.523,0,0,1,5.17,0,4.019,4.019,0,0,1,0,5.463L7.274,28.4a.8.8,0,0,0,0,1.093.7.7,0,0,0,1.034,0l6.2-6.556a5.627,5.627,0,0,0,0-7.648Z" transform="translate(-0.001 -13.707)" fill="#737373"/>
    </g>
  </g>
</svg>
