<svg id="Layer_2" data-name="Layer 2" xmlns="http://www.w3.org/2000/svg" width="246.351" height="15.58" viewBox="0 0 246.351 15.58">
  <g id="Layer_1" data-name="Layer 1">
    <path id="Path_57054" data-name="Path 57054" d="M0,6.57H105.187c.353.81.731,1.64,1.135,2.44H0Z" fill="#2dafe5" fill-rule="evenodd"/>
    <path id="Path_57055" data-name="Path 57055" d="M163.615,6.57H269.534V9H162.48c.4-.8.782-1.63,1.135-2.44" transform="translate(-23.182)" fill="#2dafe5" fill-rule="evenodd"/>
    <path id="Path_57056" data-name="Path 57056" d="M141.433,12.21A12.436,12.436,0,0,1,144.947,4c3.421-3.1,8.062-2.53,10.188-3A7.741,7.741,0,0,0,157.9,0s-2.614,8.23-5.2,11.16-7.162,2.06-9.07,2.89a4.974,4.974,0,0,0-2.253,1.53,4.974,4.974,0,0,0-2.253-1.53c-1.908-.83-6.456,0-9.07-2.89S124.78,0,124.78,0a7.741,7.741,0,0,0,2.766,1c2.127.48,6.767-.09,10.188,3a12.477,12.477,0,0,1,3.522,8.22A14.659,14.659,0,0,0,138,8.33a15.117,15.117,0,0,0-3.505-1.7,20.668,20.668,0,0,1,3.732,3,17.228,17.228,0,0,1,3.11,5.92,17.228,17.228,0,0,1,3.11-5.92,20.668,20.668,0,0,1,3.732-3,15.117,15.117,0,0,0-3.505,1.7,14.745,14.745,0,0,0-3.245,3.89" transform="translate(-18.535)" fill="#2dafe5" fill-rule="evenodd"/>
  </g>
</svg>
