<svg xmlns="http://www.w3.org/2000/svg" xmlns:xlink="http://www.w3.org/1999/xlink" width="21" height="21" viewBox="0 0 21 21" fill="#008BC5">
  <defs>
    <clipPath id="clip-path">
      <rect id="Rectangle_1555" data-name="Rectangle 1555" width="21" height="21" transform="translate(-1848 8094.169)" fill="#fff" stroke="#008BC5" stroke-width="1"/>
    </clipPath>
  </defs>
  <g id="Mask_Group_18" data-name="Mask Group 18" transform="translate(1848 -8094.169)" clip-path="url(#clip-path)">
    <g id="svgexport-6_7_" data-name="svgexport-6 (7)" transform="translate(-1844.568 8094)">
      <g id="Group_8872" data-name="Group 8872" transform="translate(0 0)">
        <path id="Path_57106" data-name="Path 57106" d="M11.735,20.077a.313.313,0,0,0,.246.126h0a.312.312,0,0,0,.245-.12c.258-.329,6.317-8.116,6.317-13.048a6.562,6.562,0,0,0-13.124,0c0,1.889,1.066,4.662,3.168,8.243C10.145,17.924,11.719,20.056,11.735,20.077ZM11.986,1.1a5.945,5.945,0,0,1,5.938,5.939c0,4.164-4.771,10.784-5.932,12.332-1.147-1.608-5.945-8.557-5.945-12.332A5.945,5.945,0,0,1,11.986,1.1Z" transform="translate(-4.705 -0.473)" stroke="#008BC5" stroke-width="0.3"/>
        <path id="Path_57107" data-name="Path 57107" d="M16.093,7.371a3.772,3.772,0,1,0-3.772,3.772A3.772,3.772,0,0,0,16.093,7.371Zm-3.772,3.148a3.149,3.149,0,1,1,3.149-3.148,3.149,3.149,0,0,1-3.149,3.148Z" transform="translate(-5.04 -0.809)" stroke="#008BC5" stroke-width="0.3"/>
        <path id="Path_57108" data-name="Path 57108" d="M15.079,20.192a.312.312,0,0,0-.076.619c2.685.329,3.553.951,3.553,1.2,0,.468-2.35,1.379-6.657,1.379s-6.657-.912-6.657-1.379c0-.267.852-.814,3.138-1.145a.312.312,0,0,0-.089-.617c-1.675.243-3.673.745-3.673,1.762,0,1.469,4.354,2,7.281,2s7.281-.533,7.281-2C19.18,20.866,16.61,20.38,15.079,20.192Z" transform="translate(-4.619 -2.588)" stroke="#008BC5" stroke-width="0.3"/>
      </g>
    </g>
  </g>
</svg>
