<svg xmlns="http://www.w3.org/2000/svg" xmlns:xlink="http://www.w3.org/1999/xlink" width="381" height="115" viewBox="0 0 381 115">
  <defs>
    <clipPath id="clip-path">
      <rect id="Rectangle_1646" data-name="Rectangle 1646" width="381" height="115" transform="translate(424 296)" fill="#fff" stroke="#707070" stroke-width="1"/>
    </clipPath>
  </defs>
  <g id="Mask_Group_28" data-name="Mask Group 28" transform="translate(-424 -296)" clip-path="url(#clip-path)">
    <g id="_253213-P4JVKP-697-02" data-name="253213-P4JVKP-697-02" transform="translate(140.266 164.714)">
      <g id="Background_2" data-name="Background 2" transform="translate(-2.44 7)">
        <path id="Path_57358" data-name="Path 57358" d="M283.4,38.43l-4.762,8.246h9.519L283.4,38.43l-4.762,8.246h9.519Z" transform="translate(233.386 -19.306)" fill="#49c5cc"/>
        <path id="Path_57359" data-name="Path 57359" d="M569.4,42.43l-4.762,8.246h9.519L569.4,42.43l-4.762,8.246h9.519Z" transform="translate(472.109 -21.316)" fill="#49c5cc"/>
        <path id="Path_57360" data-name="Path 57360" d="M158.09,23l2.876,9.072,6.419-7.026L158.09,23l2.876,9.072,6.419-7.026Z" transform="translate(132.634 -11.555)" fill="#ffafb2"/>
        <path id="Path_57361" data-name="Path 57361" d="M440.12,161.45l9.514-.189-4.921-8.151-4.593,8.34,9.514-.189-4.921-8.151Z" transform="translate(370.165 -116.127)" fill="#ffafb2"/>
        <path id="Path_57362" data-name="Path 57362" d="M301,97.419l6.27-.124-3.244-5.364L301,97.419l6.27-.124-3.244-5.364Z" transform="translate(248.486 -46.184)" fill="#ffafb2"/>
        <path id="Path_57363" data-name="Path 57363" d="M291.721,137.62l-9.151,2.632,6.852,6.608,2.3-9.241-9.151,2.632,6.852,6.608Z" transform="translate(236.285 -69.137)" fill="#ffd452"/>
        <path id="Path_57364" data-name="Path 57364" d="M150.768,90.36l-.418,5.364L155.2,93.4l-4.434-3.04-.418,5.364L155.2,93.4Z" transform="translate(123.752 -45.395)" fill="#ffd452"/>
        <path id="Path_57365" data-name="Path 57365" d="M355.768,10.36l-.418,5.364L360.2,13.4l-4.434-3.04-.418,5.364L360.2,13.4Z" transform="translate(291.396 -5.205)" fill="#ffd452"/>
        <path id="Path_57366" data-name="Path 57366" d="M548.994,111.153l-5.364-.373,2.359,4.832,3.006-4.459-5.364-.373,2.359,4.832Z" transform="translate(446.366 -55.654)" fill="#ffd452"/>
        <path id="Path_57367" data-name="Path 57367" d="M463.721,38.62l-9.151,2.632,6.852,6.608,2.3-9.241-9.151,2.632,6.852,6.608Z" transform="translate(379.62 -19.402)" fill="#ffd452"/>
        <path id="Path_57368" data-name="Path 57368" d="M174.225,137.173l-5.613-7.683-3.852,8.7,9.465-1.02-5.613-7.683-3.852,8.7Z" transform="translate(138.298 -65.053)" fill="#ff6b73"/>
        <path id="Path_57369" data-name="Path 57369" d="M385.83,106.6l7.683-5.613-8.7-3.852,1.02,9.465,7.683-5.613-8.7-3.852Z" transform="translate(320.854 -48.801)" fill="#ff6b73"/>
        <line id="Line_114" data-name="Line 114" x2="7.116" y2="13.122" transform="translate(456.573 74.981)" fill="none" stroke="#ff6b73" stroke-miterlimit="10" stroke-width="5"/>
        <line id="Line_115" data-name="Line 115" x1="7.539" y2="12.883" transform="translate(512.841 18.87)" fill="none" stroke="#ff6b73" stroke-miterlimit="10" stroke-width="5"/>
        <line id="Line_116" data-name="Line 116" y1="0.786" x2="14.909" transform="translate(894.949 29.494)" fill="none" stroke="#ffd452" stroke-miterlimit="10" stroke-width="5"/>
        <line id="Line_117" data-name="Line 117" x1="4.792" y2="14.142" transform="translate(327.87 18.243)" fill="none" stroke="#49c5cc" stroke-miterlimit="10" stroke-width="5"/>
        <line id="Line_118" data-name="Line 118" x1="12.888" y2="7.534" transform="translate(680.223 34.485)" fill="none" stroke="#ffafb2" stroke-miterlimit="10" stroke-width="5"/>
        <line id="Line_119" data-name="Line 119" x1="3.195" y1="14.58" transform="translate(945.779 1.602)" fill="none" stroke="#ffd452" stroke-miterlimit="10" stroke-width="5"/>
        <path id="Path_57370" data-name="Path 57370" d="M231.885,18.642A2.642,2.642,0,1,1,229.242,16,2.642,2.642,0,0,1,231.885,18.642Z" transform="translate(186.46 -8.038)" fill="#ff6b73"/>
        <path id="Path_57371" data-name="Path 57371" d="M553.659,60.925a1.125,1.125,0,1,1-1.125-1.125,1.125,1.125,0,0,1,1.125,1.125Z" transform="translate(446.625 -30.042)" fill="#ff6b73"/>
        <path id="Path_57372" data-name="Path 57372" d="M469.659,195.925a1.125,1.125,0,1,1-1.125-1.125A1.125,1.125,0,0,1,469.659,195.925Z" transform="translate(378.709 -97.863)" fill="#ff6b73"/>
        <path id="Path_57373" data-name="Path 57373" d="M420.659,109.925a1.125,1.125,0,1,1-1.125-1.125,1.125,1.125,0,0,1,1.125,1.125Z" transform="translate(439.685 -65.726)" fill="#ff6b73"/>
        <path id="Path_57374" data-name="Path 57374" d="M430.659,27.925a1.125,1.125,0,1,1-1.125-1.125A1.125,1.125,0,0,1,430.659,27.925Z" transform="translate(347.177 -13.464)" fill="#ff6b73"/>
        <path id="Path_57375" data-name="Path 57375" d="M356.659,143.925a1.125,1.125,0,1,1-1.125-1.125,1.125,1.125,0,0,1,1.125,1.125Z" transform="translate(287.346 -71.74)" fill="#ff6b73"/>
        <path id="Path_57376" data-name="Path 57376" d="M221.659,81.925a1.125,1.125,0,1,1-1.125-1.125A1.125,1.125,0,0,1,221.659,81.925Z" transform="translate(178.195 -40.592)" fill="#ff6b73"/>
        <path id="Path_57377" data-name="Path 57377" d="M202.659,94.925a1.125,1.125,0,1,1-1.125-1.125,1.125,1.125,0,0,1,1.125,1.125Z" transform="translate(162.832 -47.123)" fill="#ff6b73"/>
        <path id="Path_57378" data-name="Path 57378" d="M543.659,153.925a1.125,1.125,0,1,1-1.125-1.125,1.125,1.125,0,0,1,1.125,1.125Z" transform="translate(438.54 -76.764)" fill="#ff6b73"/>
        <path id="Path_57379" data-name="Path 57379" d="M436.659,14.925a1.125,1.125,0,1,1-1.125-1.125A1.125,1.125,0,0,1,436.659,14.925Z" transform="translate(352.028 -6.933)" fill="#ff6b73"/>
        <path id="Path_57380" data-name="Path 57380" d="M231.885,98.642A2.642,2.642,0,1,1,229.242,96,2.642,2.642,0,0,1,231.885,98.642Z" transform="translate(186.46 -48.228)" fill="#ffafb2"/>
        <path id="Path_57381" data-name="Path 57381" d="M271.029,125.214A2.219,2.219,0,1,1,268.814,123,2.219,2.219,0,0,1,271.029,125.214Z" transform="translate(218.416 -61.793)" fill="#ffafb2"/>
        <path id="Path_57382" data-name="Path 57382" d="M397.659,16.925a1.125,1.125,0,1,1-1.125-1.125A1.125,1.125,0,0,1,397.659,16.925Z" transform="translate(320.495 -7.938)" fill="#ffafb2"/>
        <path id="Path_57383" data-name="Path 57383" d="M537.659,94.925a1.125,1.125,0,1,1-1.125-1.125,1.125,1.125,0,0,1,1.125,1.125Z" transform="translate(433.689 -47.123)" fill="#ffafb2"/>
        <path id="Path_57384" data-name="Path 57384" d="M608.994,24.153l-5.364-.373,2.359,4.832,3.006-4.459-5.364-.373,2.359,4.832Z" transform="translate(675.585 -11.947)" fill="#ffd452"/>
        <path id="Path_57385" data-name="Path 57385" d="M564.659,3.925A1.125,1.125,0,1,1,563.534,2.8,1.125,1.125,0,0,1,564.659,3.925Z" transform="translate(455.519 -1.407)" fill="#ff6b73"/>
        <path id="Path_57386" data-name="Path 57386" d="M600.659,68.925a1.125,1.125,0,1,1-1.125-1.125A1.125,1.125,0,0,1,600.659,68.925Z" transform="translate(484.626 -34.061)" fill="#ffafb2"/>
        <path id="Path_57387" data-name="Path 57387" d="M169.659,158.925a1.125,1.125,0,1,1-1.125-1.125A1.125,1.125,0,0,1,169.659,158.925Z" transform="translate(136.151 -79.275)" fill="#ffafb2"/>
        <path id="Path_57388" data-name="Path 57388" d="M248.652,44.216a1.831,1.831,0,1,1-1.831-1.826A1.831,1.831,0,0,1,248.652,44.216Z" transform="translate(200.105 -21.296)" fill="#ffafb2"/>
        <path id="Path_57389" data-name="Path 57389" d="M159.652,110.216a1.831,1.831,0,1,1-1.831-1.826,1.831,1.831,0,0,1,1.831,1.826Z" transform="translate(127.701 -54.453)" fill="#ffafb2"/>
        <path id="Path_57390" data-name="Path 57390" d="M489.885,107.642A2.642,2.642,0,1,1,487.242,105a2.642,2.642,0,0,1,2.642,2.642Z" transform="translate(397.846 -52.75)" fill="#49c5cc"/>
        <path id="Path_57391" data-name="Path 57391" d="M536.885,2.642A2.642,2.642,0,1,1,534.242,0,2.642,2.642,0,0,1,536.885,2.642Z" transform="translate(436.354)" fill="#49c5cc"/>
        <path id="Path_57392" data-name="Path 57392" d="M240.251,119.681a1.961,1.961,0,1,1-1.961-1.961,1.961,1.961,0,0,1,1.961,1.961Z" transform="translate(193.278 -59.14)" fill="#49c5cc"/>
        <path id="Path_57393" data-name="Path 57393" d="M578.251,88.681a1.961,1.961,0,1,1-1.961-1.961,1.961,1.961,0,0,1,1.961,1.961Z" transform="translate(468.564 -43.566)" fill="#49c5cc"/>
        <path id="Path_57394" data-name="Path 57394" d="M141.251,26.681a1.961,1.961,0,1,1-1.961-1.961A1.961,1.961,0,0,1,141.251,26.681Z" transform="translate(-68.773 -12.419)" fill="#49c5cc"/>
        <path id="Path_57395" data-name="Path 57395" d="M463.885,34.642A2.642,2.642,0,1,1,461.242,32,2.642,2.642,0,0,1,463.885,34.642Z" transform="translate(376.544 -16.076)" fill="#49c5cc"/>
        <path id="Path_57396" data-name="Path 57396" d="M351.659,37.925a1.125,1.125,0,1,1-1.125-1.125A1.125,1.125,0,0,1,351.659,37.925Z" transform="translate(283.303 -18.488)" fill="#49c5cc"/>
        <path id="Path_57397" data-name="Path 57397" d="M160.659,4.925A1.125,1.125,0,1,1,159.535,3.8a1.125,1.125,0,0,1,1.125,1.125Z" transform="translate(128.874 -1.909)" fill="#49c5cc"/>
        <path id="Path_57398" data-name="Path 57398" d="M291.659,8.925A1.125,1.125,0,1,1,290.535,7.8,1.125,1.125,0,0,1,291.659,8.925Z" transform="translate(234.791 -3.919)" fill="#49c5cc"/>
        <path id="Path_57399" data-name="Path 57399" d="M486.659,138.925a1.125,1.125,0,1,1-1.125-1.125,1.125,1.125,0,0,1,1.125,1.125Z" transform="translate(392.454 -69.228)" fill="#49c5cc"/>
        <path id="Path_57400" data-name="Path 57400" d="M581.659,168.925a1.125,1.125,0,1,1-1.125-1.125A1.125,1.125,0,0,1,581.659,168.925Z" transform="translate(469.264 -84.299)" fill="#49c5cc"/>
        <path id="Path_57401" data-name="Path 57401" d="M442.659,58.925a1.125,1.125,0,1,1-1.125-1.125A1.125,1.125,0,0,1,442.659,58.925Z" transform="translate(356.879 -29.038)" fill="#49c5cc"/>
        <path id="Path_57402" data-name="Path 57402" d="M345.885,113.642A2.642,2.642,0,1,1,343.242,111a2.642,2.642,0,0,1,2.642,2.642Z" transform="translate(279.863 -55.764)" fill="#ffd452"/>
        <path id="Path_57403" data-name="Path 57403" d="M249.885,89.642A2.642,2.642,0,1,1,247.242,87a2.642,2.642,0,0,1,2.642,2.642Z" transform="translate(201.208 -43.707)" fill="#ffd452"/>
        <path id="Path_57404" data-name="Path 57404" d="M231.659,167.925a1.125,1.125,0,1,1-1.125-1.125A1.125,1.125,0,0,1,231.659,167.925Z" transform="translate(186.28 -83.797)" fill="#ffd452"/>
        <path id="Path_57405" data-name="Path 57405" d="M209.659,123.925a1.125,1.125,0,1,1-1.125-1.125A1.125,1.125,0,0,1,209.659,123.925Z" transform="translate(168.492 -61.692)" fill="#ffd452"/>
        <path id="Path_57406" data-name="Path 57406" d="M275.4,425.246,270.64,417h9.519l-4.757,8.246L270.64,417h9.519Z" transform="translate(226.709 -209.492)" fill="#49c5cc"/>
        <path id="Path_57407" data-name="Path 57407" d="M548.4,462.246,543.64,454h9.52l-4.757,8.246L543.64,454h9.52Z" transform="translate(454.581 -228.08)" fill="#49c5cc"/>
        <path id="Path_57408" data-name="Path 57408" d="M161.09,437.577l2.876-9.077,6.419,7.031-9.3,2.045,2.876-9.077,6.419,7.031Z" transform="translate(135.135 -215.269)" fill="#ffafb2"/>
        <path id="Path_57409" data-name="Path 57409" d="M440.12,312.87l9.514.189-4.921,8.146-4.593-8.335,9.514.189-4.921,8.146Z" transform="translate(368.165 -157.179)" fill="#ffafb2"/>
        <path id="Path_57410" data-name="Path 57410" d="M285,370.77l6.27.129-3.245,5.364L285,370.77l6.27.129-3.245,5.364Z" transform="translate(235.32 -186.267)" fill="#ffafb2"/>
        <path id="Path_57411" data-name="Path 57411" d="M295.721,312.791l-9.151-2.632,6.852-6.608,2.3,9.241-9.151-2.632,6.852-6.608Z" transform="translate(239.618 -152.497)" fill="#ffd452"/>
        <path id="Path_57412" data-name="Path 57412" d="M155.768,375.959l-.418-5.359,4.852,2.324-4.434,3.035-.418-5.359,4.852,2.324Z" transform="translate(127.841 -186.182)" fill="#ffd452"/>
        <path id="Path_57413" data-name="Path 57413" d="M356.768,428.959l-.418-5.359,4.852,2.324-4.434,3.035-.418-5.359,4.852,2.324Z" transform="translate(292.214 -212.808)" fill="#ffd452"/>
        <path id="Path_57414" data-name="Path 57414" d="M535.994,350.7l-5.364.378,2.359-4.832,3.006,4.454-5.364.378,2.359-4.832Z" transform="translate(435.711 -173.949)" fill="#ffd452"/>
        <path id="Path_57415" data-name="Path 57415" d="M476.721,417.791l-9.151-2.632,6.852-6.608,2.3,9.241-9.151-2.632,6.852-6.608Z" transform="translate(390.453 -205.247)" fill="#ffd452"/>
        <path id="Path_57416" data-name="Path 57416" d="M461.721,482.791l-9.151-2.632,6.852-6.608,2.3,9.241-9.151-2.632,6.852-6.608Z" transform="translate(377.953 -237.902)" fill="#ffd452"/>
        <path id="Path_57417" data-name="Path 57417" d="M168.225,330.77l-5.613,7.688-3.852-8.708,9.465,1.02-5.613,7.688-3.852-8.708Z" transform="translate(133.291 -165.66)" fill="#ff6b73"/>
        <path id="Path_57418" data-name="Path 57418" d="M377.83,354.57l7.683,5.618-8.7,3.852,1.02-9.47,7.683,5.618-8.7,3.852Z" transform="translate(314.201 -178.129)" fill="#ff6b73"/>
        <line id="Line_120" data-name="Line 120" y1="13.122" x2="7.116" transform="translate(483.962 146.639)" fill="none" stroke="#ff6b73" stroke-miterlimit="10" stroke-width="5"/>
        <line id="Line_121" data-name="Line 121" x1="7.539" y1="12.888" transform="translate(498.221 202.989)" fill="none" stroke="#ff6b73" stroke-miterlimit="10" stroke-width="5"/>
        <line id="Line_122" data-name="Line 122" y1="14.929" transform="translate(835.388 177.153)" fill="none" stroke="#ffd452" stroke-miterlimit="10" stroke-width="5"/>
        <line id="Line_123" data-name="Line 123" x1="4.792" y1="14.142" transform="translate(333.323 200.87)" fill="none" stroke="#49c5cc" stroke-miterlimit="10" stroke-width="5"/>
        <line id="Line_124" data-name="Line 124" x1="4.792" y1="14.142" transform="translate(67.373 234.21)" fill="none" stroke="#49c5cc" stroke-miterlimit="10" stroke-width="5"/>
        <line id="Line_125" data-name="Line 125" x1="4.792" y1="14.142" transform="translate(715.01 231.224)" fill="none" stroke="#49c5cc" stroke-miterlimit="10" stroke-width="5"/>
        <line id="Line_126" data-name="Line 126" x1="12.888" y1="7.534" transform="translate(670.987 200.193)" fill="none" stroke="#ffafb2" stroke-miterlimit="10" stroke-width="5"/>
        <line id="Line_127" data-name="Line 127" x1="3.195" y2="14.58" transform="translate(889.611 226.527)" fill="none" stroke="#ffafb2" stroke-miterlimit="10" stroke-width="5"/>
        <line id="Line_128" data-name="Line 128" x1="3.195" y2="14.58" transform="translate(445.702 233.991)" fill="none" stroke="#ffafb2" stroke-miterlimit="10" stroke-width="5"/>
        <path id="Path_57419" data-name="Path 57419" d="M231.885,447.762a2.642,2.642,0,1,0-2.642,2.642,2.642,2.642,0,0,0,2.642-2.642Z" transform="translate(186.46 -223.619)" fill="#ff6b73"/>
        <path id="Path_57420" data-name="Path 57420" d="M227.885,479.762a2.642,2.642,0,1,0-2.642,2.642,2.642,2.642,0,0,0,2.642-2.642Z" transform="translate(183.183 -239.695)" fill="#ff6b73"/>
        <path id="Path_57421" data-name="Path 57421" d="M468.885,458.762a2.642,2.642,0,1,0-2.642,2.642A2.642,2.642,0,0,0,468.885,458.762Z" transform="translate(380.64 -229.145)" fill="#ff6b73"/>
        <path id="Path_57422" data-name="Path 57422" d="M552.885,440.762a2.642,2.642,0,1,0-2.642,2.642,2.642,2.642,0,0,0,2.642-2.642Z" transform="translate(449.464 -220.102)" fill="#ff6b73"/>
        <path id="Path_57423" data-name="Path 57423" d="M545.659,393.54a1.125,1.125,0,1,0-.328.8A1.125,1.125,0,0,0,545.659,393.54Z" transform="translate(440.157 -197.144)" fill="#ff6b73"/>
        <path id="Path_57424" data-name="Path 57424" d="M463.659,282.54a1.125,1.125,0,1,0-.328.8A1.125,1.125,0,0,0,463.659,282.54Z" transform="translate(373.858 -141.38)" fill="#ff6b73"/>
        <path id="Path_57425" data-name="Path 57425" d="M438.659,356.54a1.125,1.125,0,1,0-.328.8A1.125,1.125,0,0,0,438.659,356.54Z" transform="translate(353.645 -178.556)" fill="#ff6b73"/>
        <path id="Path_57426" data-name="Path 57426" d="M370.659,327.54a1.125,1.125,0,1,0-.328.8A1.125,1.125,0,0,0,370.659,327.54Z" transform="translate(298.665 -163.987)" fill="#ff6b73"/>
        <path id="Path_57427" data-name="Path 57427" d="M209.659,398.54a1.125,1.125,0,1,0-.328.8A1.125,1.125,0,0,0,209.659,398.54Z" transform="translate(168.492 -199.656)" fill="#ff6b73"/>
        <path id="Path_57428" data-name="Path 57428" d="M192.659,367.54a1.125,1.125,0,1,0-.328.8A1.125,1.125,0,0,0,192.659,367.54Z" transform="translate(154.747 -184.082)" fill="#ff6b73"/>
        <path id="Path_57429" data-name="Path 57429" d="M553.659,331.54a1.125,1.125,0,1,0-.328.8A1.125,1.125,0,0,0,553.659,331.54Z" transform="translate(446.625 -165.996)" fill="#ff6b73"/>
        <path id="Path_57430" data-name="Path 57430" d="M551.659,372.54a1.125,1.125,0,1,0-.328.8A1.125,1.125,0,0,0,551.659,372.54Z" transform="translate(445.008 -186.594)" fill="#ff6b73"/>
        <path id="Path_57431" data-name="Path 57431" d="M436.659,454.54a1.125,1.125,0,1,0-.328.8A1.125,1.125,0,0,0,436.659,454.54Z" transform="translate(352.028 -227.789)" fill="#ff6b73"/>
        <path id="Path_57432" data-name="Path 57432" d="M232.885,355.762a2.642,2.642,0,1,0-2.642,2.642A2.642,2.642,0,0,0,232.885,355.762Z" transform="translate(187.279 -177.4)" fill="#ffafb2"/>
        <path id="Path_57433" data-name="Path 57433" d="M299.885,397.762a2.642,2.642,0,1,0-2.642,2.642A2.642,2.642,0,0,0,299.885,397.762Z" transform="translate(242.174 -198.5)" fill="#ffafb2"/>
        <path id="Path_57434" data-name="Path 57434" d="M292.029,339.044a2.219,2.219,0,1,0-2.214,2.214,2.219,2.219,0,0,0,2.214-2.214Z" transform="translate(235.559 -169.211)" fill="#ffafb2"/>
        <path id="Path_57435" data-name="Path 57435" d="M392.659,439.54a1.125,1.125,0,1,0-.328.8A1.125,1.125,0,0,0,392.659,439.54Z" transform="translate(316.453 -220.253)" fill="#ffafb2"/>
        <path id="Path_57436" data-name="Path 57436" d="M535.659,372.54a1.125,1.125,0,1,0-.328.8A1.125,1.125,0,0,0,535.659,372.54Z" transform="translate(432.072 -186.594)" fill="#ffafb2"/>
        <path id="Path_57437" data-name="Path 57437" d="M604.994,409.7l-5.364.378,2.359-4.832,3.006,4.454-5.364.378,2.359-4.832Z" transform="translate(607.098 -203.589)" fill="#ffd452"/>
        <path id="Path_57438" data-name="Path 57438" d="M533.087,459.316l-4.747,2.528.189-5.374,4.558,2.846-4.747,2.528.189-5.374Z" transform="translate(432.666 -229.321)" fill="#ffd452"/>
        <path id="Path_57439" data-name="Path 57439" d="M607.659,452.54a1.125,1.125,0,1,0-.328.8A1.125,1.125,0,0,0,607.659,452.54Z" transform="translate(674.691 -226.784)" fill="#ff6b73"/>
        <path id="Path_57440" data-name="Path 57440" d="M519.659,392.54a1.125,1.125,0,1,0-.328.8A1.125,1.125,0,0,0,519.659,392.54Z" transform="translate(419.135 -196.641)" fill="#ff6b73"/>
        <path id="Path_57441" data-name="Path 57441" d="M350.659,475.54a1.125,1.125,0,1,0-.328.8A1.125,1.125,0,0,0,350.659,475.54Z" transform="translate(282.494 -238.339)" fill="#ff6b73"/>
        <path id="Path_57442" data-name="Path 57442" d="M582.659,384.54a1.125,1.125,0,1,0-.328.8,1.125,1.125,0,0,0,.328-.8Z" transform="translate(470.073 -192.622)" fill="#ffafb2"/>
        <path id="Path_57443" data-name="Path 57443" d="M200.659,309.54a1.125,1.125,0,1,0-.328.8A1.125,1.125,0,0,0,200.659,309.54Z" transform="translate(161.216 -154.944)" fill="#ffafb2"/>
        <path id="Path_57444" data-name="Path 57444" d="M421.652,330.821a1.831,1.831,0,1,0-1.831,1.831A1.831,1.831,0,0,0,421.652,330.821Z" transform="translate(340.846 -165.278)" fill="#ffafb2"/>
        <path id="Path_57445" data-name="Path 57445" d="M252.652,419.821a1.831,1.831,0,1,0-1.831,1.831,1.831,1.831,0,0,0,1.831-1.831Z" transform="translate(203.359 -209.989)" fill="#ffafb2"/>
        <path id="Path_57446" data-name="Path 57446" d="M268.652,482.821a1.831,1.831,0,1,0-1.831,1.831,1.831,1.831,0,0,0,1.831-1.831Z" transform="translate(216.376 -241.639)" fill="#ffafb2"/>
        <path id="Path_57447" data-name="Path 57447" d="M145.652,336.821a1.831,1.831,0,1,0-1.831,1.831A1.831,1.831,0,0,0,145.652,336.821Z" transform="translate(-71.114 -168.292)" fill="#ffafb2"/>
        <path id="Path_57448" data-name="Path 57448" d="M514.885,363.762a2.642,2.642,0,1,0-2.642,2.642A2.642,2.642,0,0,0,514.885,363.762Z" transform="translate(418.329 -181.419)" fill="#49c5cc"/>
        <path id="Path_57449" data-name="Path 57449" d="M538.885,470.762a2.642,2.642,0,1,0-2.642,2.642A2.642,2.642,0,0,0,538.885,470.762Z" transform="translate(437.993 -235.174)" fill="#ffafb2"/>
        <path id="Path_57450" data-name="Path 57450" d="M246.251,336.1a1.961,1.961,0,1,0-.573,1.39A1.961,1.961,0,0,0,246.251,336.1Z" transform="translate(198.165 -167.865)" fill="#49c5cc"/>
        <path id="Path_57451" data-name="Path 57451" d="M591.251,337.1a1.961,1.961,0,1,0-.572,1.39A1.961,1.961,0,0,0,591.251,337.1Z" transform="translate(479.151 -168.367)" fill="#49c5cc"/>
        <path id="Path_57452" data-name="Path 57452" d="M145.251,418.1a1.961,1.961,0,1,0-.572,1.39A1.961,1.961,0,0,0,145.251,418.1Z" transform="translate(-70.782 -209.06)" fill="#49c5cc"/>
        <path id="Path_57453" data-name="Path 57453" d="M589.251,472.1a1.961,1.961,0,1,0-.573,1.39A1.961,1.961,0,0,0,589.251,472.1Z" transform="translate(477.522 -236.189)" fill="#49c5cc"/>
        <path id="Path_57454" data-name="Path 57454" d="M463.885,431.762a2.642,2.642,0,1,0-2.642,2.642A2.642,2.642,0,0,0,463.885,431.762Z" transform="translate(376.544 -215.581)" fill="#49c5cc"/>
        <path id="Path_57455" data-name="Path 57455" d="M339.659,419.54a1.125,1.125,0,1,0-.328.8A1.125,1.125,0,0,0,339.659,419.54Z" transform="translate(273.601 -210.206)" fill="#49c5cc"/>
        <path id="Path_57456" data-name="Path 57456" d="M313.659,483.54a1.125,1.125,0,1,0-.328.8A1.125,1.125,0,0,0,313.659,483.54Z" transform="translate(252.579 -242.358)" fill="#49c5cc"/>
        <path id="Path_57457" data-name="Path 57457" d="M164.659,470.54a1.125,1.125,0,1,0-.328.8A1.125,1.125,0,0,0,164.659,470.54Z" transform="translate(132.109 -235.827)" fill="#49c5cc"/>
        <path id="Path_57458" data-name="Path 57458" d="M291.659,460.54a1.125,1.125,0,1,0-.328.8A1.125,1.125,0,0,0,291.659,460.54Z" transform="translate(234.791 -230.803)" fill="#49c5cc"/>
        <path id="Path_57459" data-name="Path 57459" d="M476.659,303.54a1.125,1.125,0,1,0-.328.8,1.125,1.125,0,0,0,.328-.8Z" transform="translate(384.369 -151.929)" fill="#49c5cc"/>
        <path id="Path_57460" data-name="Path 57460" d="M587.659,305.54a1.125,1.125,0,1,0-.328.8,1.125,1.125,0,0,0,.328-.8Z" transform="translate(474.115 -152.934)" fill="#49c5cc"/>
        <path id="Path_57461" data-name="Path 57461" d="M607.659,377.54a1.125,1.125,0,1,0-.328.8A1.125,1.125,0,0,0,607.659,377.54Z" transform="translate(674.691 -189.106)" fill="#49c5cc"/>
        <path id="Path_57462" data-name="Path 57462" d="M442.659,406.54a1.125,1.125,0,1,0-.328.8A1.125,1.125,0,0,0,442.659,406.54Z" transform="translate(356.879 -203.675)" fill="#49c5cc"/>
        <path id="Path_57463" data-name="Path 57463" d="M346.885,332.762a2.642,2.642,0,1,0-2.642,2.642A2.642,2.642,0,0,0,346.885,332.762Z" transform="translate(280.682 -165.845)" fill="#ffd452"/>
        <path id="Path_57464" data-name="Path 57464" d="M268.885,382.762a2.642,2.642,0,1,0-2.642,2.642A2.642,2.642,0,0,0,268.885,382.762Z" transform="translate(216.775 -190.964)" fill="#ffd452"/>
        <path id="Path_57465" data-name="Path 57465" d="M245.659,293.54a1.125,1.125,0,1,0-.328.8A1.125,1.125,0,0,0,245.659,293.54Z" transform="translate(197.599 -146.906)" fill="#ffd452"/>
        <path id="Path_57466" data-name="Path 57466" d="M349.659,394.54a1.125,1.125,0,1,0-.328.8A1.125,1.125,0,0,0,349.659,394.54Z" transform="translate(281.686 -197.646)" fill="#ffd452"/>
        <path id="Path_57467" data-name="Path 57467" d="M424.659,404.54a1.125,1.125,0,1,0-.328.8A1.125,1.125,0,0,0,424.659,404.54Z" transform="translate(342.325 -202.67)" fill="#ffd452"/>
        <path id="Path_57468" data-name="Path 57468" d="M434.659,433.54a1.125,1.125,0,1,0-.328.8A1.125,1.125,0,0,0,434.659,433.54Z" transform="translate(350.411 -217.239)" fill="#ffd452"/>
        <path id="Path_57469" data-name="Path 57469" d="M202.659,469.54a1.125,1.125,0,1,0-.328.8A1.125,1.125,0,0,0,202.659,469.54Z" transform="translate(162.833 -235.324)" fill="#ffd452"/>
        <path id="Path_57470" data-name="Path 57470" d="M141.659,394.54a1.125,1.125,0,1,0-.328.8A1.125,1.125,0,0,0,141.659,394.54Z" transform="translate(-69.818 -197.646)" fill="#ffd452"/>
        <path id="Path_57471" data-name="Path 57471" d="M531.659,408.54a1.124,1.124,0,1,0-.328.8A1.125,1.125,0,0,0,531.659,408.54Z" transform="translate(428.838 -204.679)" fill="#ffd452"/>
        <path id="Path_57472" data-name="Path 57472" d="M573.659,237.54a1.125,1.125,0,1,0-.328.8A1.125,1.125,0,0,0,573.659,237.54Z" transform="translate(462.796 -118.772)" fill="#ffd452"/>
        <path id="Path_57473" data-name="Path 57473" d="M189.659,335.54a1.125,1.125,0,1,0-.328.8A1.125,1.125,0,0,0,189.659,335.54Z" transform="translate(152.322 -168.006)" fill="#ffd452"/>
        <path id="Path_57474" data-name="Path 57474" d="M600.4,268.246,595.64,260h9.519l-4.757,8.246L595.64,260h9.519Z" transform="translate(610.516 -130.619)" fill="#49c5cc"/>
        <path id="Path_57475" data-name="Path 57475" d="M396.4,295.246,391.64,287h9.52l-4.757,8.246L391.64,287h9.52Z" transform="translate(327.707 -144.183)" fill="#49c5cc"/>
        <path id="Path_57476" data-name="Path 57476" d="M254.4,280.246,249.64,272h9.519l-4.757,8.246L249.64,272h9.519Z" transform="translate(209.18 -136.647)" fill="#49c5cc"/>
        <path id="Path_57477" data-name="Path 57477" d="M305.4,234.246,300.64,226h9.519l-4.757,8.246L300.64,226h9.519Z" transform="translate(251.75 -113.538)" fill="#49c5cc"/>
        <path id="Path_57478" data-name="Path 57478" d="M489.09,268.577l2.876-9.077,6.419,7.031-9.3,2.045,2.876-9.077,6.419,7.031Z" transform="translate(408.646 -130.367)" fill="#ffafb2"/>
        <path id="Path_57479" data-name="Path 57479" d="M173.12,245.87l9.515.189-4.921,8.146-4.593-8.335,9.515.189-4.921,8.146Z" transform="translate(145.306 -123.52)" fill="#ffafb2"/>
        <path id="Path_57480" data-name="Path 57480" d="M612,214.78l6.27.124-3.245,5.364L612,214.78l6.27.124-3.245,5.364Z" transform="translate(671.38 -107.901)" fill="#ffafb2"/>
        <path id="Path_57481" data-name="Path 57481" d="M596.721,154.791l-9.151-2.632,6.852-6.608,2.3,9.241-9.151-2.632,6.852-6.608Z" transform="translate(490.454 -73.121)" fill="#ffd452"/>
        <path id="Path_57482" data-name="Path 57482" d="M472.768,218.959l-.418-5.359,4.852,2.324-4.434,3.035-.418-5.359,4.852,2.324Z" transform="translate(387.076 -107.308)" fill="#ffd452"/>
        <path id="Path_57483" data-name="Path 57483" d="M250.768,242.959l-.418-5.359,4.852,2.324-4.434,3.035-.418-5.359,4.852,2.324Z" transform="translate(205.53 -119.365)" fill="#ffd452"/>
        <path id="Path_57484" data-name="Path 57484" d="M226.994,196.709l-5.364.373,2.359-4.832,3.006,4.459-5.364.373,2.359-4.832Z" transform="translate(182.451 -96.582)" fill="#ffd452"/>
        <path id="Path_57485" data-name="Path 57485" d="M154.721,268.791l-9.151-2.632,6.852-6.608,2.3,9.241-9.151-2.632,6.852-6.608Z" transform="translate(122.116 -130.392)" fill="#ffd452"/>
        <path id="Path_57486" data-name="Path 57486" d="M530.225,180.77l-5.613,7.688-3.852-8.708,9.465,1.02-5.613,7.688-3.852-8.708Z" transform="translate(435.378 -90.303)" fill="#ff6b73"/>
        <path id="Path_57487" data-name="Path 57487" d="M384.83,159.57l7.683,5.618-8.7,3.852,1.02-9.47,7.683,5.618-8.7,3.852Z" transform="translate(253.904 -121.669)" fill="#ff6b73"/>
        <line id="Line_129" data-name="Line 129" y1="13.122" x2="7.116" transform="translate(1029.915 71.498)" fill="none" stroke="#ff6b73" stroke-miterlimit="10" stroke-width="5"/>
        <line id="Line_130" data-name="Line 130" x1="7.539" y1="12.888" transform="translate(1208.079 117.896)" fill="none" stroke="#ff6b73" stroke-miterlimit="10" stroke-width="5"/>
        <line id="Line_131" data-name="Line 131" x1="7.539" y1="12.888" transform="translate(664.52 84.058)" fill="none" stroke="#ff6b73" stroke-miterlimit="10" stroke-width="5"/>
        <line id="Line_132" data-name="Line 132" y1="14.929" transform="translate(278.991 104.998)" fill="none" stroke="#ffd452" stroke-miterlimit="10" stroke-width="5"/>
        <line id="Line_133" data-name="Line 133" x1="4.792" y1="14.142" transform="translate(945.841 137.672)" fill="none" stroke="#49c5cc" stroke-miterlimit="10" stroke-width="5"/>
        <line id="Line_134" data-name="Line 134" x1="12.888" y1="7.534" transform="translate(562.004 87.731)" fill="none" stroke="#ffafb2" stroke-miterlimit="10" stroke-width="5"/>
        <line id="Line_135" data-name="Line 135" x1="12.888" y1="7.534" transform="translate(763.346 137.493)" fill="none" stroke="#ffafb2" stroke-miterlimit="10" stroke-width="5"/>
        <line id="Line_136" data-name="Line 136" x1="12.57" y2="8.052" transform="translate(292.718 147.186)" fill="none" stroke="#ffafb2" stroke-miterlimit="10" stroke-width="5"/>
        <path id="Path_57488" data-name="Path 57488" d="M555.885,281.762a2.642,2.642,0,1,0-2.642,2.642A2.642,2.642,0,0,0,555.885,281.762Z" transform="translate(451.922 -140.224)" fill="#ff6b73"/>
        <path id="Path_57489" data-name="Path 57489" d="M402.885,199.762a2.642,2.642,0,1,0-2.642,2.642A2.642,2.642,0,0,0,402.885,199.762Z" transform="translate(326.565 -99.029)" fill="#ff6b73"/>
        <path id="Path_57490" data-name="Path 57490" d="M232.659,256.54a1.125,1.125,0,1,0-.328.8A1.125,1.125,0,0,0,232.659,256.54Z" transform="translate(187.088 -128.318)" fill="#ff6b73"/>
        <path id="Path_57491" data-name="Path 57491" d="M133.659,116.54a1.125,1.125,0,1,0-.328.8A1.125,1.125,0,0,0,133.659,116.54Z" transform="translate(-65.799 -57.985)" fill="#ff6b73"/>
        <path id="Path_57492" data-name="Path 57492" d="M128.659,194.54a1.125,1.125,0,1,0-.328.8,1.125,1.125,0,0,0,.328-.8Z" transform="translate(-63.287 -97.17)" fill="#ff6b73"/>
        <path id="Path_57493" data-name="Path 57493" d="M252.659,206.54a1.125,1.125,0,1,0-.328.8,1.125,1.125,0,0,0,.328-.8Z" transform="translate(203.259 -103.199)" fill="#ff6b73"/>
        <path id="Path_57494" data-name="Path 57494" d="M551.659,250.54a1.125,1.125,0,1,0-.328.8A1.125,1.125,0,0,0,551.659,250.54Z" transform="translate(445.008 -125.303)" fill="#ff6b73"/>
        <path id="Path_57495" data-name="Path 57495" d="M496.659,232.54a1.125,1.125,0,1,0-.328.8A1.125,1.125,0,0,0,496.659,232.54Z" transform="translate(400.539 -116.261)" fill="#ff6b73"/>
        <path id="Path_57496" data-name="Path 57496" d="M436.659,250.54a1.125,1.125,0,1,0-.328.8A1.125,1.125,0,0,0,436.659,250.54Z" transform="translate(352.028 -125.303)" fill="#ff6b73"/>
        <path id="Path_57497" data-name="Path 57497" d="M352.09,275.577l2.876-9.077,6.419,7.031-9.3,2.045,2.876-9.077,6.419,7.031Z" transform="translate(294.405 -133.884)" fill="#ffafb2"/>
        <path id="Path_57498" data-name="Path 57498" d="M427.09,218.577l2.876-9.077,6.419,7.031-9.3,2.045,2.876-9.077,6.419,7.031Z" transform="translate(356.946 -105.248)" fill="#ffafb2"/>
        <line id="Line_137" data-name="Line 137" x1="4.792" y1="14.142" transform="translate(591.416 133.193)" fill="none" stroke="#49c5cc" stroke-miterlimit="10" stroke-width="5"/>
        <path id="Path_57499" data-name="Path 57499" d="M389.659,248.54a1.125,1.125,0,1,0-.328.8A1.125,1.125,0,0,0,389.659,248.54Z" transform="translate(314.027 -124.299)" fill="#ff6b73"/>
        <path id="Path_57500" data-name="Path 57500" d="M359.659,239.54a1.125,1.125,0,1,0-.328.8A1.125,1.125,0,0,0,359.659,239.54Z" transform="translate(289.771 -119.777)" fill="#ff6b73"/>
        <path id="Path_57501" data-name="Path 57501" d="M507.659,220.54a1.125,1.125,0,1,0-.328.8,1.125,1.125,0,0,0,.328-.8Z" transform="translate(409.433 -110.232)" fill="#ff6b73"/>
        <path id="Path_57502" data-name="Path 57502" d="M332.659,170.54a1.125,1.125,0,1,0-.328.8A1.125,1.125,0,0,0,332.659,170.54Z" transform="translate(267.941 -85.113)" fill="#ff6b73"/>
        <path id="Path_57503" data-name="Path 57503" d="M207.659,176.54a1.125,1.125,0,1,0-.328.8A1.125,1.125,0,0,0,207.659,176.54Z" transform="translate(166.875 -88.127)" fill="#ff6b73"/>
        <path id="Path_57504" data-name="Path 57504" d="M127.659,300.54a1.125,1.125,0,1,0-.328.8A1.125,1.125,0,0,0,127.659,300.54Z" transform="translate(-62.784 -150.422)" fill="#ff6b73"/>
        <path id="Path_57505" data-name="Path 57505" d="M526.885,262.762a2.642,2.642,0,1,0-2.642,2.642A2.642,2.642,0,0,0,526.885,262.762Z" transform="translate(428.161 -130.679)" fill="#ffafb2"/>
        <path id="Path_57506" data-name="Path 57506" d="M528.885,194.762a2.642,2.642,0,1,0-2.642,2.642A2.642,2.642,0,0,0,528.885,194.762Z" transform="translate(429.8 -96.517)" fill="#ffafb2"/>
        <path id="Path_57507" data-name="Path 57507" d="M605.029,200.044a2.219,2.219,0,1,0-2.214,2.214A2.219,2.219,0,0,0,605.029,200.044Z" transform="translate(677.112 -99.381)" fill="#ffafb2"/>
        <path id="Path_57508" data-name="Path 57508" d="M214.659,158.54a1.125,1.125,0,1,0-.328.8,1.125,1.125,0,0,0,.328-.8Z" transform="translate(172.535 -79.085)" fill="#ffafb2"/>
        <path id="Path_57509" data-name="Path 57509" d="M223.659,221.54a1.125,1.125,0,1,0-.328.8A1.125,1.125,0,0,0,223.659,221.54Z" transform="translate(179.812 -110.734)" fill="#ffafb2"/>
        <path id="Path_57510" data-name="Path 57510" d="M300.994,264.7l-5.364.378,2.359-4.832,3.006,4.454-5.364.378,2.359-4.832Z" transform="translate(243.102 -130.744)" fill="#ffd452"/>
        <path id="Path_57511" data-name="Path 57511" d="M309.659,295.54a1.125,1.125,0,1,0-.328.8,1.125,1.125,0,0,0,.328-.8Z" transform="translate(249.345 -147.91)" fill="#ff6b73"/>
        <path id="Path_57512" data-name="Path 57512" d="M432.659,194.54a1.125,1.125,0,1,0-.328.8,1.125,1.125,0,0,0,.328-.8Z" transform="translate(348.794 -97.17)" fill="#ff6b73"/>
        <path id="Path_57513" data-name="Path 57513" d="M282.659,224.54a1.125,1.125,0,1,0-.328.8A1.125,1.125,0,0,0,282.659,224.54Z" transform="translate(227.515 -112.242)" fill="#ffafb2"/>
        <path id="Path_57514" data-name="Path 57514" d="M509.659,148.54a1.125,1.125,0,1,0-.328.8A1.125,1.125,0,0,0,509.659,148.54Z" transform="translate(411.05 -74.061)" fill="#ffafb2"/>
        <path id="Path_57515" data-name="Path 57515" d="M139.652,162.821a1.831,1.831,0,1,0-1.831,1.831A1.831,1.831,0,0,0,139.652,162.821Z" transform="translate(-68.1 -80.878)" fill="#ffafb2"/>
        <path id="Path_57516" data-name="Path 57516" d="M577.652,264.821a1.831,1.831,0,1,0-1.831,1.831A1.831,1.831,0,0,0,577.652,264.821Z" transform="translate(467.758 -132.121)" fill="#ffafb2"/>
        <path id="Path_57517" data-name="Path 57517" d="M486.652,179.821a1.831,1.831,0,1,0-1.831,1.831A1.831,1.831,0,0,0,486.652,179.821Z" transform="translate(393.726 -89.418)" fill="#ffafb2"/>
        <path id="Path_57518" data-name="Path 57518" d="M197.885,206.762a2.642,2.642,0,1,0-2.642,2.642A2.642,2.642,0,0,0,197.885,206.762Z" transform="translate(158.603 -102.546)" fill="#49c5cc"/>
        <path id="Path_57519" data-name="Path 57519" d="M222.885,331.762a2.642,2.642,0,1,0-2.642,2.642A2.642,2.642,0,0,0,222.885,331.762Z" transform="translate(179.086 -165.343)" fill="#49c5cc"/>
        <path id="Path_57520" data-name="Path 57520" d="M371.4,222.246,366.64,214h9.519l-4.757,8.246L366.64,214h9.519Z" transform="translate(306.839 -107.509)" fill="#49c5cc"/>
        <path id="Path_57521" data-name="Path 57521" d="M349.659,198.54a1.125,1.125,0,1,0-.328.8A1.125,1.125,0,0,0,349.659,198.54Z" transform="translate(281.686 -99.18)" fill="#ff6b73"/>
        <path id="Path_57522" data-name="Path 57522" d="M412.994,197.709l-5.364.373,2.359-4.832,3.006,4.459-5.364.373,2.359-4.832Z" transform="translate(334.899 -97.085)" fill="#ffd452"/>
        <path id="Path_57523" data-name="Path 57523" d="M415.659,240.54a1.125,1.125,0,1,0-.328.8,1.125,1.125,0,0,0,.328-.8Z" transform="translate(335.049 -120.28)" fill="#ff6b73"/>
        <path id="Path_57524" data-name="Path 57524" d="M344.885,251.762a2.642,2.642,0,1,0-2.642,2.642A2.642,2.642,0,0,0,344.885,251.762Z" transform="translate(279.044 -125.153)" fill="#49c5cc"/>
        <path id="Path_57525" data-name="Path 57525" d="M566.252,184.121a1.961,1.961,0,1,0-.563,1.406A1.961,1.961,0,0,0,566.252,184.121Z" transform="translate(458.79 -91.528)" fill="#49c5cc"/>
        <path id="Path_57526" data-name="Path 57526" d="M295.251,198.121a1.961,1.961,0,1,0-.563,1.406,1.961,1.961,0,0,0,.563-1.406Z" transform="translate(238.073 -98.562)" fill="#49c5cc"/>
        <path id="Path_57527" data-name="Path 57527" d="M469.251,257.1a1.961,1.961,0,1,0-.573,1.39A1.961,1.961,0,0,0,469.251,257.1Z" transform="translate(379.788 -128.177)" fill="#49c5cc"/>
        <path id="Path_57528" data-name="Path 57528" d="M387.251,315.1a1.961,1.961,0,1,0-.573,1.39A1.961,1.961,0,0,0,387.251,315.1Z" transform="translate(313.003 -157.315)" fill="#49c5cc"/>
        <path id="Path_57529" data-name="Path 57529" d="M154.885,277.762a2.642,2.642,0,1,0-2.642,2.642A2.642,2.642,0,0,0,154.885,277.762Z" transform="translate(123.372 -138.215)" fill="#49c5cc"/>
        <path id="Path_57530" data-name="Path 57530" d="M493.659,315.54a1.124,1.124,0,1,0-.328.8A1.125,1.125,0,0,0,493.659,315.54Z" transform="translate(398.114 -157.958)" fill="#49c5cc"/>
        <path id="Path_57531" data-name="Path 57531" d="M500.659,295.54a1.125,1.125,0,1,0-.328.8,1.125,1.125,0,0,0,.328-.8Z" transform="translate(403.773 -147.91)" fill="#49c5cc"/>
        <path id="Path_57532" data-name="Path 57532" d="M326.659,335.54a1.125,1.125,0,1,0-.328.8A1.125,1.125,0,0,0,326.659,335.54Z" transform="translate(263.09 -168.006)" fill="#49c5cc"/>
        <path id="Path_57533" data-name="Path 57533" d="M608.659,303.54a1.125,1.125,0,1,0-.328.8,1.125,1.125,0,0,0,.328-.8Z" transform="translate(674.188 -151.929)" fill="#49c5cc"/>
        <path id="Path_57534" data-name="Path 57534" d="M162.659,180.54a1.125,1.125,0,1,0-.328.8,1.125,1.125,0,0,0,.328-.8Z" transform="translate(130.492 -90.137)" fill="#49c5cc"/>
        <path id="Path_57535" data-name="Path 57535" d="M325.659,138.54a1.125,1.125,0,1,0-.328.8A1.125,1.125,0,0,0,325.659,138.54Z" transform="translate(262.281 -69.037)" fill="#49c5cc"/>
        <path id="Path_57536" data-name="Path 57536" d="M128.659,246.54a1.125,1.125,0,1,0-.328.8A1.125,1.125,0,0,0,128.659,246.54Z" transform="translate(-63.287 -123.294)" fill="#49c5cc"/>
        <path id="Path_57537" data-name="Path 57537" d="M145.885,129.762a2.642,2.642,0,1,0-2.642,2.642A2.642,2.642,0,0,0,145.885,129.762Z" transform="translate(0.493 -63.862)" fill="#ffd452"/>
        <path id="Path_57538" data-name="Path 57538" d="M589.885,219.762a2.642,2.642,0,1,0-2.642,2.642A2.642,2.642,0,0,0,589.885,219.762Z" transform="translate(479.779 -109.077)" fill="#ffd452"/>
        <path id="Path_57539" data-name="Path 57539" d="M568.659,101.54a1.125,1.125,0,1,0-.328.8A1.125,1.125,0,0,0,568.659,101.54Z" transform="translate(458.753 -50.449)" fill="#ffd452"/>
        <path id="Path_57540" data-name="Path 57540" d="M471.659,121.54a1.125,1.125,0,1,0-.328.8A1.125,1.125,0,0,0,471.659,121.54Z" transform="translate(401.326 -94.21)" fill="#ffd452"/>
        <path id="Path_57541" data-name="Path 57541" d="M406.659,120.54a1.125,1.125,0,1,0-.328.8A1.125,1.125,0,0,0,406.659,120.54Z" transform="translate(502.621 -107.208)" fill="#ffd452"/>
        <path id="Path_57542" data-name="Path 57542" d="M415.659,77.54a1.125,1.125,0,1,0-.328.8A1.125,1.125,0,0,0,415.659,77.54Z" transform="translate(335.049 -38.392)" fill="#ffd452"/>
        <path id="Path_57543" data-name="Path 57543" d="M331.659,75.54a1.125,1.125,0,1,0-.328.8,1.125,1.125,0,0,0,.328-.8Z" transform="translate(267.132 -37.387)" fill="#ffd452"/>
        <path id="Path_57544" data-name="Path 57544" d="M189.659,14.54a1.125,1.125,0,1,0-.328.8A1.125,1.125,0,0,0,189.659,14.54Z" transform="translate(152.322 -6.742)" fill="#ffd452"/>
        <path id="Path_57545" data-name="Path 57545" d="M529.659,75.54a1.125,1.125,0,1,0-.328.8A1.125,1.125,0,0,0,529.659,75.54Z" transform="translate(427.221 -37.387)" fill="#ffd452"/>
        <path id="Path_57546" data-name="Path 57546" d="M551.659,84.54a1.125,1.125,0,1,0-.328.8A1.125,1.125,0,0,0,551.659,84.54Z" transform="translate(445.008 -41.908)" fill="#ffd452"/>
        <path id="Path_57547" data-name="Path 57547" d="M553.659,19.54a1.125,1.125,0,1,0-.328.8,1.125,1.125,0,0,0,.328-.8Z" transform="translate(446.625 -9.254)" fill="#ffd452"/>
        <path id="Path_57548" data-name="Path 57548" d="M695.4,42.43l-4.762,8.246h9.519L695.4,42.43l-4.762,8.246h9.519Z" transform="translate(631.873 -21.316)" fill="#49c5cc"/>
        <path id="Path_57549" data-name="Path 57549" d="M674.994,111.153l-5.364-.373,2.359,4.832,3.006-4.459-5.364-.373,2.359,4.832Z" transform="translate(642.428 -55.654)" fill="#ffd452"/>
        <line id="Line_138" data-name="Line 138" x1="3.195" y1="14.58" transform="translate(1301.07 1.602)" fill="none" stroke="#ffd452" stroke-miterlimit="10" stroke-width="5"/>
        <path id="Path_57550" data-name="Path 57550" d="M679.659,60.925a1.125,1.125,0,1,1-1.125-1.125,1.125,1.125,0,0,1,1.125,1.125Z" transform="translate(638.519 -30.042)" fill="#ff6b73"/>
        <path id="Path_57551" data-name="Path 57551" d="M669.659,153.925a1.125,1.125,0,1,1-1.125-1.125,1.125,1.125,0,0,1,1.125,1.125Z" transform="translate(643.543 -76.764)" fill="#ff6b73"/>
        <path id="Path_57552" data-name="Path 57552" d="M663.659,94.925a1.125,1.125,0,1,1-1.125-1.125,1.125,1.125,0,0,1,1.125,1.125Z" transform="translate(646.557 -47.123)" fill="#ffafb2"/>
        <path id="Path_57553" data-name="Path 57553" d="M734.994,24.153l-5.364-.373,2.359,4.832,3.006-4.459-5.364-.373,2.359,4.832Z" transform="translate(612.285 -11.947)" fill="#ffd452"/>
        <path id="Path_57554" data-name="Path 57554" d="M690.659,3.925A1.125,1.125,0,1,1,689.535,2.8,1.125,1.125,0,0,1,690.659,3.925Z" transform="translate(632.993 -1.407)" fill="#ff6b73"/>
        <path id="Path_57555" data-name="Path 57555" d="M726.659,68.925a1.125,1.125,0,1,1-1.125-1.125A1.125,1.125,0,0,1,726.659,68.925Z" transform="translate(614.908 -34.061)" fill="#ffafb2"/>
        <path id="Path_57556" data-name="Path 57556" d="M662.885,2.642A2.642,2.642,0,1,1,660.242,0,2.642,2.642,0,0,1,662.885,2.642Z" transform="translate(648.471)" fill="#49c5cc"/>
        <path id="Path_57557" data-name="Path 57557" d="M704.251,88.681a1.961,1.961,0,1,1-1.961-1.961A1.961,1.961,0,0,1,704.251,88.681Z" transform="translate(627.005 -43.566)" fill="#49c5cc"/>
        <path id="Path_57558" data-name="Path 57558" d="M707.659,168.925a1.125,1.125,0,1,1-1.125-1.125A1.125,1.125,0,0,1,707.659,168.925Z" transform="translate(624.453 -84.299)" fill="#49c5cc"/>
        <path id="Path_57559" data-name="Path 57559" d="M683.4,472.246,678.64,464h9.519l-4.757,8.246L678.64,464h9.519Z" transform="translate(637.901 -233.104)" fill="#49c5cc"/>
        <path id="Path_57560" data-name="Path 57560" d="M661.994,350.7l-5.364.378,2.359-4.832,3.006,4.454-5.364.378,2.359-4.832Z" transform="translate(648.959 -173.949)" fill="#ffd452"/>
        <path id="Path_57561" data-name="Path 57561" d="M694.885,414.762a2.642,2.642,0,1,0-2.642,2.642A2.642,2.642,0,0,0,694.885,414.762Z" transform="translate(632.395 -207.04)" fill="#ff6b73"/>
        <path id="Path_57562" data-name="Path 57562" d="M732.885,476.762a2.642,2.642,0,1,0-2.642,2.642,2.642,2.642,0,0,0,2.642-2.642Z" transform="translate(613.305 -238.188)" fill="#ff6b73"/>
        <path id="Path_57563" data-name="Path 57563" d="M671.659,393.54a1.125,1.125,0,1,0-.328.8A1.125,1.125,0,0,0,671.659,393.54Z" transform="translate(642.538 -197.144)" fill="#ff6b73"/>
        <path id="Path_57564" data-name="Path 57564" d="M679.659,331.54a1.124,1.124,0,1,0-.328.8,1.124,1.124,0,0,0,.328-.8Z" transform="translate(638.519 -165.996)" fill="#ff6b73"/>
        <path id="Path_57565" data-name="Path 57565" d="M677.659,372.54a1.125,1.125,0,1,0-.328.8A1.125,1.125,0,0,0,677.659,372.54Z" transform="translate(639.524 -186.594)" fill="#ff6b73"/>
        <path id="Path_57566" data-name="Path 57566" d="M661.659,372.54a1.124,1.124,0,1,0-.328.8A1.125,1.125,0,0,0,661.659,372.54Z" transform="translate(647.562 -186.594)" fill="#ffafb2"/>
        <path id="Path_57567" data-name="Path 57567" d="M730.994,409.7l-5.364.378,2.359-4.832,3.006,4.454-5.364.378,2.359-4.832Z" transform="translate(614.295 -203.589)" fill="#ffd452"/>
        <path id="Path_57568" data-name="Path 57568" d="M694.994,445.7l-5.364.378,2.359-4.832,3.006,4.454-5.364.378,2.359-4.832Z" transform="translate(632.38 -221.675)" fill="#ffd452"/>
        <path id="Path_57569" data-name="Path 57569" d="M651.107,474.292l-4.727,2.563.144-5.374,4.583,2.812-4.727,2.563.144-5.374Z" transform="translate(654.108 -236.862)" fill="#ffd452"/>
        <path id="Path_57570" data-name="Path 57570" d="M733.659,452.54a1.125,1.125,0,1,0-.328.8A1.125,1.125,0,0,0,733.659,452.54Z" transform="translate(611.391 -226.784)" fill="#ff6b73"/>
        <path id="Path_57571" data-name="Path 57571" d="M717.659,481.54a1.125,1.125,0,1,0-.328.8,1.125,1.125,0,0,0,.328-.8Z" transform="translate(619.429 -241.353)" fill="#ff6b73"/>
        <path id="Path_57572" data-name="Path 57572" d="M645.659,392.54a1.125,1.125,0,1,0-.328.8,1.124,1.124,0,0,0,.328-.8Z" transform="translate(655.6 -196.641)" fill="#ff6b73"/>
        <path id="Path_57573" data-name="Path 57573" d="M708.659,384.54a1.125,1.125,0,1,0-.328.8,1.125,1.125,0,0,0,.328-.8Z" transform="translate(623.95 -192.622)" fill="#ffafb2"/>
        <path id="Path_57574" data-name="Path 57574" d="M640.885,363.762a2.642,2.642,0,1,0-2.642,2.642A2.642,2.642,0,0,0,640.885,363.762Z" transform="translate(659.524 -181.419)" fill="#49c5cc"/>
        <path id="Path_57575" data-name="Path 57575" d="M630.885,460.762a2.642,2.642,0,1,0-2.642,2.642,2.642,2.642,0,0,0,2.642-2.642Z" transform="translate(664.548 -230.15)" fill="#ffafb2"/>
        <path id="Path_57576" data-name="Path 57576" d="M717.251,337.1a1.961,1.961,0,1,0-.573,1.39A1.961,1.961,0,0,0,717.251,337.1Z" transform="translate(620.474 -168.367)" fill="#49c5cc"/>
        <path id="Path_57577" data-name="Path 57577" d="M650.251,434.1a1.961,1.961,0,1,0-.573,1.39A1.961,1.961,0,0,0,650.251,434.1Z" transform="translate(654.133 -217.098)" fill="#49c5cc"/>
        <path id="Path_57578" data-name="Path 57578" d="M713.659,305.54a1.125,1.125,0,1,0-.328.8,1.125,1.125,0,0,0,.328-.8Z" transform="translate(621.438 -152.934)" fill="#49c5cc"/>
        <path id="Path_57579" data-name="Path 57579" d="M733.659,377.54a1.125,1.125,0,1,0-.328.8A1.125,1.125,0,0,0,733.659,377.54Z" transform="translate(611.391 -189.106)" fill="#49c5cc"/>
        <path id="Path_57580" data-name="Path 57580" d="M657.659,408.54a1.125,1.125,0,1,0-.328.8A1.125,1.125,0,0,0,657.659,408.54Z" transform="translate(649.572 -204.679)" fill="#ffd452"/>
        <path id="Path_57581" data-name="Path 57581" d="M699.659,237.54a1.125,1.125,0,1,0-.328.8A1.125,1.125,0,0,0,699.659,237.54Z" transform="translate(628.472 -118.772)" fill="#ffd452"/>
        <path id="Path_57582" data-name="Path 57582" d="M726.4,268.246,721.64,260h9.519l-4.757,8.246L721.64,260h9.519Z" transform="translate(616.299 -130.619)" fill="#49c5cc"/>
        <path id="Path_57583" data-name="Path 57583" d="M615.09,103.577l2.876-9.077,6.419,7.031-9.3,2.045,2.876-9.077,6.419,7.031Z" transform="translate(669.828 -47.475)" fill="#ffafb2"/>
        <path id="Path_57584" data-name="Path 57584" d="M738,214.78l6.27.124-3.244,5.364L738,214.78l6.27.124-3.244,5.364Z" transform="translate(608.08 -107.901)" fill="#ffafb2"/>
        <path id="Path_57585" data-name="Path 57585" d="M722.721,154.791l-9.151-2.632,6.852-6.608,2.3,9.241-9.151-2.632,6.852-6.608Z" transform="translate(620.353 -73.121)" fill="#ffd452"/>
        <path id="Path_57586" data-name="Path 57586" d="M656.225,180.77l-5.613,7.688-3.852-8.708,9.465,1.02-5.613,7.688-3.852-8.708Z" transform="translate(653.917 -90.303)" fill="#ff6b73"/>
        <line id="Line_139" data-name="Line 139" y1="13.122" x2="7.116" transform="translate(1322 71.498)" fill="none" stroke="#ff6b73" stroke-miterlimit="10" stroke-width="5"/>
        <line id="Line_140" data-name="Line 140" x1="7.539" y1="12.888" transform="translate(1339.706 117.896)" fill="none" stroke="#ff6b73" stroke-miterlimit="10" stroke-width="5"/>
        <line id="Line_141" data-name="Line 141" x1="9.803" y1="11.256" transform="translate(1299.757 137.124)" fill="none" stroke="#49c5cc" stroke-miterlimit="10" stroke-width="5"/>
        <path id="Path_57587" data-name="Path 57587" d="M681.885,281.762a2.642,2.642,0,1,0-2.642,2.642,2.642,2.642,0,0,0,2.642-2.642Z" transform="translate(638.926 -140.224)" fill="#ff6b73"/>
        <path id="Path_57588" data-name="Path 57588" d="M677.659,250.54a1.125,1.125,0,1,0-.328.8A1.125,1.125,0,0,0,677.659,250.54Z" transform="translate(639.524 -125.303)" fill="#ff6b73"/>
        <path id="Path_57589" data-name="Path 57589" d="M633.659,220.54a1.125,1.125,0,1,0-.328.8,1.125,1.125,0,0,0,.328-.8Z" transform="translate(661.629 -110.232)" fill="#ff6b73"/>
        <path id="Path_57590" data-name="Path 57590" d="M649.885,244.762a2.642,2.642,0,1,0-2.642,2.642A2.642,2.642,0,0,0,649.885,244.762Z" transform="translate(655.002 -121.636)" fill="#ffafb2"/>
        <path id="Path_57591" data-name="Path 57591" d="M654.885,194.762a2.642,2.642,0,1,0-2.642,2.642A2.642,2.642,0,0,0,654.885,194.762Z" transform="translate(652.49 -96.517)" fill="#ffafb2"/>
        <path id="Path_57592" data-name="Path 57592" d="M731.029,200.044a2.219,2.219,0,1,0-2.214,2.214,2.219,2.219,0,0,0,2.214-2.214Z" transform="translate(613.812 -99.381)" fill="#ffafb2"/>
        <path id="Path_57593" data-name="Path 57593" d="M635.659,148.54a1.125,1.125,0,1,0-.328.8,1.125,1.125,0,0,0,.328-.8Z" transform="translate(660.624 -74.061)" fill="#ffafb2"/>
        <path id="Path_57594" data-name="Path 57594" d="M703.652,264.821a1.831,1.831,0,1,0-1.831,1.831A1.831,1.831,0,0,0,703.652,264.821Z" transform="translate(627.176 -132.121)" fill="#ffafb2"/>
        <path id="Path_57595" data-name="Path 57595" d="M692.252,184.121a1.961,1.961,0,1,0-.563,1.406A1.961,1.961,0,0,0,692.252,184.121Z" transform="translate(633.033 -91.528)" fill="#49c5cc"/>
        <path id="Path_57596" data-name="Path 57596" d="M609.659,327.54a1.125,1.125,0,1,0-.328.8,1.125,1.125,0,0,0,.328-.8Z" transform="translate(673.686 -163.987)" fill="#49c5cc"/>
        <path id="Path_57597" data-name="Path 57597" d="M734.659,303.54a1.125,1.125,0,1,0-.328.8,1.125,1.125,0,0,0,.328-.8Z" transform="translate(610.889 -151.929)" fill="#49c5cc"/>
        <path id="Path_57598" data-name="Path 57598" d="M715.885,219.762a2.642,2.642,0,1,0-2.642,2.642A2.642,2.642,0,0,0,715.885,219.762Z" transform="translate(621.845 -109.077)" fill="#ffd452"/>
        <path id="Path_57599" data-name="Path 57599" d="M694.659,101.54a1.125,1.125,0,1,0-.328.8A1.125,1.125,0,0,0,694.659,101.54Z" transform="translate(630.984 -50.449)" fill="#ffd452"/>
        <path id="Path_57600" data-name="Path 57600" d="M655.659,75.54a1.125,1.125,0,1,0-.328.8A1.125,1.125,0,0,0,655.659,75.54Z" transform="translate(650.576 -37.387)" fill="#ffd452"/>
        <path id="Path_57601" data-name="Path 57601" d="M677.659,84.54a1.125,1.125,0,1,0-.328.8A1.125,1.125,0,0,0,677.659,84.54Z" transform="translate(639.524 -41.908)" fill="#ffd452"/>
        <path id="Path_57602" data-name="Path 57602" d="M679.659,19.54a1.124,1.124,0,1,0-.328.8,1.125,1.125,0,0,0,.328-.8Z" transform="translate(638.519 -9.254)" fill="#ffd452"/>
        <path id="Path_57603" data-name="Path 57603" d="M475.659,4.54a1.125,1.125,0,1,0-.328.8,1.125,1.125,0,0,0,.328-.8Z" transform="translate(383.56 -1.718)" fill="#ffd452"/>
        <path id="Path_57604" data-name="Path 57604" d="M343.659,19.54a1.125,1.125,0,1,0-.328.8,1.125,1.125,0,0,0,.328-.8Z" transform="translate(276.835 -9.254)" fill="#ffd452"/>
        <path id="Path_57605" data-name="Path 57605" d="M233.659,48.54a1.125,1.125,0,1,0-.328.8A1.125,1.125,0,0,0,233.659,48.54Z" transform="translate(187.897 -23.823)" fill="#ffd452"/>
        <path id="Path_57606" data-name="Path 57606" d="M259.659,22.54a1.125,1.125,0,1,0-.328.8A1.125,1.125,0,0,0,259.659,22.54Z" transform="translate(208.919 -10.761)" fill="#ffd452"/>
        <path id="Path_57607" data-name="Path 57607" d="M127.659,77.54a1.125,1.125,0,1,0-.328.8A1.125,1.125,0,0,0,127.659,77.54Z" transform="translate(-62.784 -38.392)" fill="#ffd452"/>
        <path id="Path_57608" data-name="Path 57608" d="M14.09,23l2.876,9.072,6.419-7.026L14.09,23l2.876,9.072,6.419-7.026Z" transform="translate(-6.86 -11.555)" fill="#ffafb2"/>
        <path id="Path_57609" data-name="Path 57609" d="M6.763,90.36,6.35,95.724,11.2,93.4,6.763,90.36,6.35,95.724,11.2,93.4Z" transform="translate(-2.971 -45.395)" fill="#ffd452"/>
        <path id="Path_57610" data-name="Path 57610" d="M30.225,137.173l-5.613-7.683-3.852,8.7,9.465-1.02-5.613-7.683-3.852,8.7Z" transform="translate(-10.21 -65.053)" fill="#ff6b73"/>
        <line id="Line_142" data-name="Line 142" x2="7.116" y2="13.122" transform="translate(52.773 74.981)" fill="none" stroke="#ff6b73" stroke-miterlimit="10" stroke-width="5"/>
        <line id="Line_143" data-name="Line 143" x1="4.792" y2="14.142" transform="translate(18.108 18.243)" fill="none" stroke="#49c5cc" stroke-miterlimit="10" stroke-width="5"/>
        <path id="Path_57611" data-name="Path 57611" d="M87.885,18.642A2.642,2.642,0,1,1,85.242,16a2.642,2.642,0,0,1,2.642,2.642Z" transform="translate(-41.278 -8.038)" fill="#ff6b73"/>
        <path id="Path_57612" data-name="Path 57612" d="M77.659,81.925A1.125,1.125,0,1,1,76.535,80.8,1.125,1.125,0,0,1,77.659,81.925Z" transform="translate(-37.665 -40.592)" fill="#ff6b73"/>
        <path id="Path_57613" data-name="Path 57613" d="M58.659,94.925A1.125,1.125,0,1,1,57.535,93.8a1.125,1.125,0,0,1,1.125,1.125Z" transform="translate(-28.12 -47.123)" fill="#ff6b73"/>
        <path id="Path_57614" data-name="Path 57614" d="M87.885,98.642A2.642,2.642,0,1,1,85.242,96a2.642,2.642,0,0,1,2.642,2.642Z" transform="translate(-41.278 -48.228)" fill="#ffafb2"/>
        <path id="Path_57615" data-name="Path 57615" d="M127.029,125.214A2.219,2.219,0,1,1,124.814,123,2.219,2.219,0,0,1,127.029,125.214Z" transform="translate(-61.368 -61.793)" fill="#ffafb2"/>
        <path id="Path_57616" data-name="Path 57616" d="M25.659,158.925a1.125,1.125,0,1,1-1.125-1.125A1.125,1.125,0,0,1,25.659,158.925Z" transform="translate(-11.542 -79.275)" fill="#ffafb2"/>
        <path id="Path_57617" data-name="Path 57617" d="M104.652,44.216a1.831,1.831,0,1,1-1.831-1.826,1.831,1.831,0,0,1,1.831,1.826Z" transform="translate(-50.516 -21.296)" fill="#ffafb2"/>
        <path id="Path_57618" data-name="Path 57618" d="M15.652,110.216a1.831,1.831,0,1,1-1.831-1.826,1.831,1.831,0,0,1,1.831,1.826Z" transform="translate(-5.805 -54.453)" fill="#ffafb2"/>
        <path id="Path_57619" data-name="Path 57619" d="M96.251,119.681a1.961,1.961,0,1,1-1.961-1.961A1.961,1.961,0,0,1,96.251,119.681Z" transform="translate(-46.166 -59.14)" fill="#49c5cc"/>
        <path id="Path_57620" data-name="Path 57620" d="M-.44,25.83V28.9a1.941,1.941,0,0,0,.746-1.528A1.951,1.951,0,0,0-.44,25.83Z" transform="translate(0.44 -12.976)" fill="#49c5cc"/>
        <path id="Path_57621" data-name="Path 57621" d="M16.659,4.925A1.125,1.125,0,1,1,15.535,3.8a1.125,1.125,0,0,1,1.125,1.125Z" transform="translate(-7.02 -1.909)" fill="#49c5cc"/>
        <path id="Path_57622" data-name="Path 57622" d="M105.885,89.642A2.642,2.642,0,1,1,103.242,87,2.642,2.642,0,0,1,105.885,89.642Z" transform="translate(-50.32 -43.707)" fill="#ffd452"/>
        <path id="Path_57623" data-name="Path 57623" d="M87.659,167.925a1.125,1.125,0,1,1-1.125-1.125A1.125,1.125,0,0,1,87.659,167.925Z" transform="translate(-42.689 -83.797)" fill="#ffd452"/>
        <path id="Path_57624" data-name="Path 57624" d="M65.659,123.925a1.125,1.125,0,1,1-1.125-1.125A1.125,1.125,0,0,1,65.659,123.925Z" transform="translate(-31.637 -61.692)" fill="#ffd452"/>
        <path id="Path_57625" data-name="Path 57625" d="M17.09,437.577l2.876-9.077,6.419,7.031-9.3,2.045,2.876-9.077,6.419,7.031Z" transform="translate(-8.367 -215.269)" fill="#ffafb2"/>
        <path id="Path_57626" data-name="Path 57626" d="M11.768,375.959,11.35,370.6l4.852,2.324-4.434,3.035L11.35,370.6l4.852,2.324Z" transform="translate(-5.483 -186.182)" fill="#ffd452"/>
        <path id="Path_57627" data-name="Path 57627" d="M24.225,330.77l-5.613,7.688L14.76,329.75l9.465,1.02-5.613,7.688L14.76,329.75Z" transform="translate(-7.196 -165.66)" fill="#ff6b73"/>
        <line id="Line_144" data-name="Line 144" y1="13.122" x2="7.116" transform="translate(60.237 146.639)" fill="none" stroke="#ff6b73" stroke-miterlimit="10" stroke-width="5"/>
        <line id="Line_145" data-name="Line 145" x1="4.792" y1="14.142" transform="translate(19.601 200.87)" fill="none" stroke="#49c5cc" stroke-miterlimit="10" stroke-width="5"/>
        <line id="Line_146" data-name="Line 146" x1="3.195" y2="14.58" transform="translate(50.752 233.991)" fill="none" stroke="#ffafb2" stroke-miterlimit="10" stroke-width="5"/>
        <path id="Path_57628" data-name="Path 57628" d="M87.885,447.762a2.642,2.642,0,1,0-2.642,2.642,2.642,2.642,0,0,0,2.642-2.642Z" transform="translate(-41.278 -223.619)" fill="#ff6b73"/>
        <path id="Path_57629" data-name="Path 57629" d="M65.659,398.54a1.125,1.125,0,1,0-.328.8A1.125,1.125,0,0,0,65.659,398.54Z" transform="translate(-31.637 -199.656)" fill="#ff6b73"/>
        <path id="Path_57630" data-name="Path 57630" d="M48.659,367.54a1.125,1.125,0,1,0-.328.8A1.125,1.125,0,0,0,48.659,367.54Z" transform="translate(-23.096 -184.082)" fill="#ff6b73"/>
        <path id="Path_57631" data-name="Path 57631" d="M88.885,355.762a2.642,2.642,0,1,0-2.642,2.642A2.642,2.642,0,0,0,88.885,355.762Z" transform="translate(-41.78 -177.4)" fill="#ffafb2"/>
        <path id="Path_57632" data-name="Path 57632" d="M56.659,309.54a1.125,1.125,0,1,0-.328.8A1.125,1.125,0,0,0,56.659,309.54Z" transform="translate(-27.116 -154.944)" fill="#ffafb2"/>
        <path id="Path_57633" data-name="Path 57633" d="M108.652,419.821a1.831,1.831,0,1,0-1.831,1.831A1.831,1.831,0,0,0,108.652,419.821Z" transform="translate(-52.526 -209.989)" fill="#ffafb2"/>
        <path id="Path_57634" data-name="Path 57634" d="M124.653,488.821a1.831,1.831,0,1,0-1.831,1.831A1.831,1.831,0,0,0,124.653,488.821Z" transform="translate(-60.564 -244.654)" fill="#ffafb2"/>
        <path id="Path_57635" data-name="Path 57635" d="M.53,335.22a1.846,1.846,0,0,0-.97.284v3.085a1.8,1.8,0,0,0,1,.284,1.831,1.831,0,1,0,0-3.662Z" transform="translate(0.44 -168.403)" fill="#ffafb2"/>
        <path id="Path_57636" data-name="Path 57636" d="M102.251,336.1a1.961,1.961,0,1,0-.572,1.39A1.961,1.961,0,0,0,102.251,336.1Z" transform="translate(-49.18 -167.865)" fill="#49c5cc"/>
        <path id="Path_57637" data-name="Path 57637" d="M.331,416.367a1.911,1.911,0,0,0-.771.159v3.608a1.991,1.991,0,0,0,.771.159,1.966,1.966,0,1,0,0-3.926Z" transform="translate(0.44 -209.173)" fill="#49c5cc"/>
        <path id="Path_57638" data-name="Path 57638" d="M20.659,470.54a1.125,1.125,0,1,0-.328.8A1.125,1.125,0,0,0,20.659,470.54Z" transform="translate(-9.03 -235.827)" fill="#49c5cc"/>
        <path id="Path_57639" data-name="Path 57639" d="M124.885,382.762a2.642,2.642,0,1,0-2.642,2.642,2.642,2.642,0,0,0,2.642-2.642Z" transform="translate(-59.866 -190.964)" fill="#ffd452"/>
        <path id="Path_57640" data-name="Path 57640" d="M101.659,293.54a1.125,1.125,0,1,0-.328.8A1.125,1.125,0,0,0,101.659,293.54Z" transform="translate(-49.723 -146.906)" fill="#ffd452"/>
        <path id="Path_57641" data-name="Path 57641" d="M58.659,469.54a1.125,1.125,0,1,0-.328.8,1.125,1.125,0,0,0,.328-.8Z" transform="translate(-28.12 -235.324)" fill="#ffd452"/>
        <path id="Path_57642" data-name="Path 57642" d="M45.659,335.54a1.125,1.125,0,1,0-.328.8A1.125,1.125,0,0,0,45.659,335.54Z" transform="translate(-21.589 -168.006)" fill="#ffd452"/>
        <path id="Path_57643" data-name="Path 57643" d="M110.4,280.246,105.64,272h9.519l-4.757,8.246L105.64,272h9.519Z" transform="translate(-52.852 -136.647)" fill="#49c5cc"/>
        <path id="Path_57644" data-name="Path 57644" d="M29.12,245.87l9.515.189-4.921,8.146L29.12,245.87l9.515.189-4.921,8.146Z" transform="translate(-14.41 -123.52)" fill="#ffafb2"/>
        <path id="Path_57645" data-name="Path 57645" d="M106.768,242.959l-.418-5.359,4.852,2.324-4.434,3.035-.418-5.359,4.852,2.324Z" transform="translate(-53.209 -119.365)" fill="#ffd452"/>
        <path id="Path_57646" data-name="Path 57646" d="M82.994,196.709l-5.364.373,2.359-4.832,3.006,4.459-5.364.373,2.359-4.832Z" transform="translate(-38.781 -96.582)" fill="#ffd452"/>
        <path id="Path_57647" data-name="Path 57647" d="M10.721,268.791,1.57,266.158l6.852-6.608,2.3,9.241L1.57,266.158l6.852-6.608Z" transform="translate(-0.57 -130.392)" fill="#ffd452"/>
        <path id="Path_57648" data-name="Path 57648" d="M29.971,296l-9.181,5.892" transform="translate(-10.226 -148.704)" fill="none" stroke="#ffafb2" stroke-miterlimit="10" stroke-width="5"/>
        <path id="Path_57649" data-name="Path 57649" d="M88.659,256.54a1.125,1.125,0,1,0-.328.8A1.125,1.125,0,0,0,88.659,256.54Z" transform="translate(-43.192 -128.318)" fill="#ff6b73"/>
        <path id="Path_57650" data-name="Path 57650" d="M108.659,206.54a1.125,1.125,0,1,0-.328.8,1.125,1.125,0,0,0,.328-.8Z" transform="translate(-53.239 -103.199)" fill="#ff6b73"/>
        <path id="Path_57651" data-name="Path 57651" d="M63.659,176.54a1.125,1.125,0,1,0-.328.8A1.125,1.125,0,0,0,63.659,176.54Z" transform="translate(-30.632 -88.127)" fill="#ff6b73"/>
        <path id="Path_57652" data-name="Path 57652" d="M70.659,158.54a1.125,1.125,0,1,0-.328.8,1.125,1.125,0,0,0,.328-.8Z" transform="translate(-34.149 -79.085)" fill="#ffafb2"/>
        <path id="Path_57653" data-name="Path 57653" d="M79.659,221.54a1.125,1.125,0,1,0-.328.8,1.125,1.125,0,0,0,.328-.8Z" transform="translate(-38.67 -110.734)" fill="#ffafb2"/>
        <path id="Path_57654" data-name="Path 57654" d="M53.885,206.762a2.642,2.642,0,1,0-2.642,2.642A2.642,2.642,0,0,0,53.885,206.762Z" transform="translate(-24.197 -102.546)" fill="#49c5cc"/>
        <path id="Path_57655" data-name="Path 57655" d="M78.885,331.762a2.642,2.642,0,1,0-2.642,2.642A2.642,2.642,0,0,0,78.885,331.762Z" transform="translate(-36.756 -165.343)" fill="#49c5cc"/>
        <path id="Path_57656" data-name="Path 57656" d="M10.885,277.762A2.642,2.642,0,1,0,8.242,280.4a2.642,2.642,0,0,0,2.642-2.642Z" transform="translate(-2.594 -138.215)" fill="#49c5cc"/>
        <path id="Path_57657" data-name="Path 57657" d="M18.659,180.54a1.125,1.125,0,1,0-.328.8,1.125,1.125,0,0,0,.328-.8Z" transform="translate(-8.025 -90.137)" fill="#49c5cc"/>
        <path id="Path_57658" data-name="Path 57658" d="M.655,127.36A2.593,2.593,0,0,0-.44,127.6v4.8a2.672,2.672,0,0,0,1.095.244,2.642,2.642,0,0,0,0-5.285Z" transform="translate(0.44 -63.983)" fill="#ffd452"/>
        <path id="Path_57659" data-name="Path 57659" d="M45.659,14.54a1.125,1.125,0,1,0-.328.8A1.125,1.125,0,0,0,45.659,14.54Z" transform="translate(-21.589 -6.742)" fill="#ffd452"/>
        <path id="Path_57660" data-name="Path 57660" d="M89.659,48.54a1.125,1.125,0,1,0-.328.8A1.125,1.125,0,0,0,89.659,48.54Z" transform="translate(-43.694 -23.823)" fill="#ffd452"/>
        <path id="Path_57661" data-name="Path 57661" d="M115.659,22.54a1.125,1.125,0,1,0-.328.8A1.125,1.125,0,0,0,115.659,22.54Z" transform="translate(-56.756 -10.761)" fill="#ffd452"/>
        <path id="Path_57662" data-name="Path 57662" d="M494.659,204.54a1.125,1.125,0,1,0-.328.8A1.125,1.125,0,0,0,494.659,204.54Z" transform="translate(398.922 -102.194)" fill="#ffd452"/>
        <path id="Path_57663" data-name="Path 57663" d="M348.646,282.42l.413,1.284h1.348l-1.09.647.418,1.209-1.09-.831-1.095.771.418-1.145-1.09-.652h1.349Z" transform="translate(282.83 -141.882)" fill="#fdfdfd"/>
        <path id="Path_57664" data-name="Path 57664" d="M360.457,282.42l.413,1.284h1.349l-1.09.647.418,1.209-1.09-.831-1.09.771.413-1.145-1.09-.652h1.349Z" transform="translate(292.432 -141.882)" fill="#fdfdfd"/>
        <path id="Path_57665" data-name="Path 57665" d="M372.267,282.42l.418,1.284h1.349l-1.095.647.418,1.209-1.09-.831-1.09.771.413-1.145-1.09-.652h1.349Z" transform="translate(302.041 -141.882)" fill="#fdfdfd"/>
        <path id="Path_57666" data-name="Path 57666" d="M384.082,282.42l.418,1.284h1.349l-1.09.647.413,1.209-1.09-.831-1.09.771.418-1.145-1.09-.652h1.344Z" transform="translate(311.645 -141.882)" fill="#fdfdfd"/>
        <path id="Path_57667" data-name="Path 57667" d="M395.9,282.42l.413,1.284h1.349l-1.09.647.418,1.209-1.09-.831-1.095.771.418-1.145-1.09-.652h1.349Z" transform="translate(321.247 -141.882)" fill="#fdfdfd"/>
        <path id="Path_57668" data-name="Path 57668" d="M347.692,209.42l.418,1.284h1.349l-1.095.547.418,1.164-1.09-.856-1.09.761.418-1.055-1.09-.562h1.344Z" transform="translate(282.058 -105.208)" fill="#fdfdfd"/>
        <path id="Path_57669" data-name="Path 57669" d="M359.5,209.42l.418,1.284h1.349l-1.09.547.413,1.164-1.09-.856-1.09.761.418-1.055-1.09-.562h1.344Z" transform="translate(291.66 -105.208)" fill="#fdfdfd"/>
        <path id="Path_57670" data-name="Path 57670" d="M371.317,209.42l.413,1.284h1.349l-1.09.547.418,1.164-1.09-.856-1.095.761.418-1.055-1.09-.562H370.9Z" transform="translate(301.262 -105.208)" fill="#fdfdfd"/>
        <path id="Path_57671" data-name="Path 57671" d="M383.127,209.42l.413,1.284h1.349l-1.09.547.418,1.164-1.09-.856-1.095.761.418-1.055-1.09-.562h1.349Z" transform="translate(310.864 -105.208)" fill="#fdfdfd"/>
        <path id="Path_57672" data-name="Path 57672" d="M394.936,209.42l.418,1.284H396.7l-1.09.547.418,1.164-1.09-.856-1.09.761.413-1.055-1.09-.562h1.349Z" transform="translate(320.467 -105.208)" fill="#fdfdfd"/>
      </g>
    </g>
  </g>
</svg>
