<svg xmlns="http://www.w3.org/2000/svg" width="21" height="20.374" viewBox="0 0 21 20.374">
  <g id="pas" transform="translate(0.289 0.202)">
    <rect id="Area" width="19.824" height="20" transform="translate(0.211 0)" fill="#fcfcfc" opacity="0"/>
    <g id="Icon" transform="translate(0.211 0.505)">
      <path id="_4305ee07-0a11-49ce-adbc-903052a08dee" data-name="4305ee07-0a11-49ce-adbc-903052a08dee" d="M20.3,1.3l-2,2.018M10.691,11a5.584,5.584,0,0,1,0,7.847,5.467,5.467,0,0,1-7.778,0,5.582,5.582,0,0,1,0-7.847,5.467,5.467,0,0,1,7.778,0Zm0,0L14.8,6.848m0,0,3,3.026,3.5-3.531-3-3.026M14.8,6.848l3.5-3.531" transform="translate(-1.3 -1.3)" fill="none" stroke="#008BC5" stroke-linecap="round" stroke-linejoin="round" stroke-width="1"/>
    </g>
  </g>
</svg>
