<svg id="reward_1_" data-name="reward (1)" xmlns="http://www.w3.org/2000/svg" width="48.771" height="42.443" viewBox="0 0 48.771 42.443">
  <g id="Group_8735" data-name="Group 8735" transform="translate(0 0)">
    <g id="Group_8733" data-name="Group 8733" transform="translate(0 0)">
      <path id="Path_56463" data-name="Path 56463" d="M92.258,37.557h-.995a3.007,3.007,0,0,1-3.007-3.007V32.932a.629.629,0,0,1,.629-.629h.366a3.007,3.007,0,0,1,3.007,3.007Z" transform="translate(-79.612 -32.303)" fill="#fee45a"/>
      <path id="Path_56464" data-name="Path 56464" d="M98.833,101.73l.462.881a3.007,3.007,0,0,0,4.059,1.269l1.433-.751a.629.629,0,0,0,.265-.849l-.17-.324a3.007,3.007,0,0,0-4.059-1.269Z" transform="translate(-89.153 -93.679)" fill="#fee45a"/>
      <path id="Path_56465" data-name="Path 56465" d="M37.912,96.079h-.995a3.007,3.007,0,0,1-3.007-3.007V91.454a.629.629,0,0,1,.629-.629H34.9a3.007,3.007,0,0,1,3.007,3.007v2.247Z" transform="translate(-30.589 -85.093)" fill="#fee45a"/>
      <path id="Path_56466" data-name="Path 56466" d="M7.392,183.916H6.4a3.007,3.007,0,0,1-3.007-3.007v-1.618a.629.629,0,0,1,.629-.629h.366a3.007,3.007,0,0,1,3.007,3.007v2.247Z" transform="translate(-3.058 -164.327)" fill="#fee45a"/>
      <path id="Path_56467" data-name="Path 56467" d="M45.254,214.27l.944.314a3.007,3.007,0,0,0,3.8-1.906l.51-1.536a.629.629,0,0,0-.4-.795l-.348-.115a3.007,3.007,0,0,0-3.8,1.906Z" transform="translate(-40.822 -192.665)" fill="#fee45a"/>
      <path id="Path_56468" data-name="Path 56468" d="M66.859,299.81l.987-.123a3.007,3.007,0,0,0,2.613-3.355l-.2-1.606a.629.629,0,0,0-.7-.546l-.363.045a3.007,3.007,0,0,0-2.613,3.355Z" transform="translate(-60.039 -268.527)" fill="#fee45a"/>
      <path id="Path_56469" data-name="Path 56469" d="M5.418,284.11l-.931.351A3.007,3.007,0,0,1,.612,282.71L.04,281.2a.629.629,0,0,1,.366-.81l.343-.129a3.007,3.007,0,0,1,3.876,1.751Z" transform="translate(0 -255.795)" fill="#fee45a"/>
      <path id="Path_56470" data-name="Path 56470" d="M36.609,365.029l-.7.7a3.007,3.007,0,0,1-4.253,0l-1.144-1.144a.629.629,0,0,1,0-.889l.259-.259a3.007,3.007,0,0,1,4.253,0Z" transform="translate(-27.354 -330.213)" fill="#fee45a"/>
      <path id="Path_56471" data-name="Path 56471" d="M100.211,423.637l-.486.868a3.008,3.008,0,0,1-4.093,1.157l-1.412-.79a.629.629,0,0,1-.242-.856l.179-.319a3.007,3.007,0,0,1,4.093-1.157Z" transform="translate(-84.702 -383.973)" fill="#fee45a"/>
      <path id="Path_56472" data-name="Path 56472" d="M156.444,394.964l.5-.862a3.007,3.007,0,0,0-1.1-4.108l-1.4-.809a.629.629,0,0,0-.859.23l-.183.317a3.007,3.007,0,0,0,1.1,4.108Z" transform="translate(-138.009 -354.155)" fill="#fee45a"/>
      <path id="Path_56473" data-name="Path 56473" d="M368.833,37.557h.995a3.007,3.007,0,0,0,3.007-3.007V32.932a.629.629,0,0,0-.629-.629h-.366a3.007,3.007,0,0,0-3.007,3.007Z" transform="translate(-332.708 -32.303)" fill="#fee45a"/>
      <path id="Path_56474" data-name="Path 56474" d="M341.174,101.73l-.461.881a3.007,3.007,0,0,1-4.059,1.269l-1.433-.751a.629.629,0,0,1-.265-.849l.17-.324a3.007,3.007,0,0,1,4.059-1.269Z" transform="translate(-302.083 -93.679)" fill="#fee45a"/>
      <path id="Path_56475" data-name="Path 56475" d="M423.177,96.079h.995a3.007,3.007,0,0,0,3.007-3.007V91.454a.629.629,0,0,0-.629-.629h-.366a3.007,3.007,0,0,0-3.007,3.007Z" transform="translate(-381.729 -85.093)" fill="#fee45a"/>
      <path id="Path_56476" data-name="Path 56476" d="M453.7,183.916h.995a3.007,3.007,0,0,0,3.007-3.007v-1.618a.629.629,0,0,0-.629-.629h-.366a3.007,3.007,0,0,0-3.007,3.007Z" transform="translate(-409.261 -164.327)" fill="#fee45a"/>
      <path id="Path_56477" data-name="Path 56477" d="M403.992,214.27l-.944.314a3.007,3.007,0,0,1-3.8-1.906l-.51-1.536a.629.629,0,0,1,.4-.795l.348-.115a3.007,3.007,0,0,1,3.8,1.906Z" transform="translate(-359.653 -192.665)" fill="#fee45a"/>
      <path id="Path_56478" data-name="Path 56478" d="M394.947,299.811l-.987-.123a3.007,3.007,0,0,1-2.613-3.355l.2-1.606a.629.629,0,0,1,.7-.546l.363.045a3.007,3.007,0,0,1,2.613,3.355Z" transform="translate(-352.995 -268.527)" fill="#fee45a"/>
      <path id="Path_56479" data-name="Path 56479" d="M442.626,284.11l.931.351a3.007,3.007,0,0,0,3.876-1.751L448,281.2a.629.629,0,0,0-.366-.81l-.342-.129a3.007,3.007,0,0,0-3.876,1.751Z" transform="translate(-399.273 -255.795)" fill="#fee45a"/>
      <path id="Path_56480" data-name="Path 56480" d="M403.46,365.029l.7.7a3.007,3.007,0,0,0,4.253,0l1.144-1.144a.629.629,0,0,0,0-.889l-.259-.259a3.007,3.007,0,0,0-4.253,0Z" transform="translate(-363.944 -330.213)" fill="#fee45a"/>
      <path id="Path_56481" data-name="Path 56481" d="M339.6,423.637l.486.868a3.008,3.008,0,0,0,4.093,1.157l1.412-.79a.629.629,0,0,0,.242-.856l-.179-.319a3.007,3.007,0,0,0-4.093-1.157Z" transform="translate(-306.339 -383.973)" fill="#fee45a"/>
      <path id="Path_56482" data-name="Path 56482" d="M301.436,394.964l-.5-.862a3.007,3.007,0,0,1,1.1-4.108l1.4-.809a.629.629,0,0,1,.859.23l.183.317a3.007,3.007,0,0,1-1.1,4.108Z" transform="translate(-271.1 -354.155)" fill="#fee45a"/>
    </g>
    <path id="Path_56483" data-name="Path 56483" d="M145.175,112.547l2.461,4.987a1.372,1.372,0,0,0,1.033.75l5.5.8a1.372,1.372,0,0,1,.76,2.34l-3.983,3.882a1.372,1.372,0,0,0-.395,1.214L151.5,132a1.372,1.372,0,0,1-1.99,1.446l-4.923-2.588a1.372,1.372,0,0,0-1.277,0l-4.923,2.588a1.372,1.372,0,0,1-1.99-1.446l.94-5.482a1.372,1.372,0,0,0-.395-1.214l-3.983-3.882a1.372,1.372,0,0,1,.76-2.34l5.5-.8a1.372,1.372,0,0,0,1.033-.75l2.461-4.987A1.372,1.372,0,0,1,145.175,112.547Z" transform="translate(-119.559 -103.998)" fill="#fed402"/>
    <g id="Group_8734" data-name="Group 8734" transform="translate(12.982 7.784)">
      <path id="Path_56484" data-name="Path 56484" d="M142.169,127.992a1.372,1.372,0,0,0-.395-1.214l-3.983-3.882a1.372,1.372,0,0,1,.76-2.34l5.5-.8a1.372,1.372,0,0,0,1.033-.75l1.638-3.318-1.551-3.143a1.372,1.372,0,0,0-2.46,0l-2.461,4.987a1.372,1.372,0,0,1-1.033.75l-5.5.8a1.372,1.372,0,0,0-.76,2.34l3.983,3.882a1.372,1.372,0,0,1,.395,1.214l-.94,5.482a1.372,1.372,0,0,0,1.99,1.446l3.132-1.646Z" transform="translate(-132.541 -111.781)" fill="#fac600"/>
    </g>
  </g>
  <g id="Group_8736" data-name="Group 8736" transform="translate(3.6 2.179)">
    <path id="Path_56485" data-name="Path 56485" d="M57.537,94.812a20.789,20.789,0,0,1-7.4-40.216.735.735,0,0,1,.523,1.373,19.313,19.313,0,1,0,13.745,0,.735.735,0,1,1,.523-1.373,20.788,20.788,0,0,1-7.4,40.216Z" transform="translate(-36.751 -54.547)" fill="#fed402"/>
  </g>
</svg>
