<svg xmlns="http://www.w3.org/2000/svg" width="24.707" height="20.647" viewBox="0 0 24.707 20.647">
  <g id="svgexport-10_50_" data-name="svgexport-10 (50)" transform="translate(0.501 0.512)">
    <path id="Path_12" data-name="Path 12" d="M.369,25.08a.37.37,0,0,1-.369-.4c.009-.131,1.088-12.94,15.192-14.039l-.034-4.828A.37.37,0,0,1,15.8,5.56l7.763,8.214a.369.369,0,0,1,0,.507l-7.811,8.288a.37.37,0,0,1-.639-.257l.045-4.7A20.806,20.806,0,0,0,.667,24.929.37.37,0,0,1,.369,25.08ZM15.9,6.751l.03,4.236a.37.37,0,0,1-.346.372C4.235,12.076,1.535,20.345.915,23.521a21.878,21.878,0,0,1,14.594-6.677.37.37,0,0,1,.39.373l-.039,4.158,6.924-7.346Z" transform="translate(0.001 -5.445)" fill="#fff" stroke="#fff" stroke-width="1"/>
  </g>
</svg>