<svg xmlns="http://www.w3.org/2000/svg" width="22.488" height="23.518" viewBox="0 0 22.488 23.518">
  <g id="svgexport-10_44_" data-name="svgexport-10 (44)" transform="translate(0.1 0.1)">
    <g id="Group_4" data-name="Group 4" transform="translate(0 11.689)">
      <g id="Group_3" data-name="Group 3">
        <path id="Path_1" data-name="Path 1" d="M22.472,257.323a11.157,11.157,0,0,0-11.144,11.144.485.485,0,0,0,.969,0,10.175,10.175,0,0,1,20.35,0,.485.485,0,0,0,.969,0A11.156,11.156,0,0,0,22.472,257.323Z" transform="translate(-11.328 -257.323)" fill="#008bc5" stroke="#008bc5" stroke-width="0.2"/>
      </g>
    </g>
    <g id="Group_6" data-name="Group 6" transform="translate(5.814)">
      <g id="Group_5" data-name="Group 5" transform="translate(0)">
        <path id="Path_2" data-name="Path 2" d="M144.658,0a5.33,5.33,0,1,0,5.33,5.33A5.336,5.336,0,0,0,144.658,0Zm0,9.691a4.361,4.361,0,1,1,4.361-4.361A4.366,4.366,0,0,1,144.658,9.691Z" transform="translate(-139.328)" fill="#008bc5" stroke="#008bc5" stroke-width="0.2"/>
      </g>
    </g>
  </g>
</svg>
