<svg xmlns="http://www.w3.org/2000/svg" width="113.423" height="113.423" viewBox="0 0 113.423 113.423">
  <g id="svgexport-7_29_" data-name="svgexport-7 (29)" transform="translate(0.139 -9.387)">
    <g id="Group_23364" data-name="Group 23364" transform="translate(67.44 9.387)">
      <path id="Path_57061" data-name="Path 57061" d="M294.966,68.932a2.243,2.243,0,0,1-1.1-.286,2.272,2.272,0,0,1-.884-3.087c11.565-20.82,25.382-27.9,25.956-28.191a2.274,2.274,0,0,1,2.045,4.062c-.173.088-13.207,6.867-24.022,26.333a2.273,2.273,0,0,1-1.995,1.17Zm0,0" transform="translate(-285.88 -37.124)" fill="#fff"/>
      <path id="Path_57062" data-name="Path 57062" d="M268.011,180.969a2.271,2.271,0,0,1-2.031-3.287l2.272-4.543a2.272,2.272,0,0,1,4.064,2.033l-2.272,4.543A2.27,2.27,0,0,1,268.011,180.969Zm0,0" transform="translate(-265.741 -137.803)" fill="#fff"/>
    </g>
    <g id="svgexport-7_30_" data-name="svgexport-7 (30)" transform="translate(-2.139 7.387)">
      <g id="Flat_Color" data-name="Flat Color" transform="translate(2 2)">
        <path id="Path_57063" data-name="Path 57063" d="M87.067,115.423H30.356A28.356,28.356,0,0,1,2,87.067V30.356A28.356,28.356,0,0,1,30.356,2h39.7a5.671,5.671,0,1,1,0,11.342h-39.7A17.013,17.013,0,0,0,13.342,30.356V87.067a17.013,17.013,0,0,0,17.013,17.013H87.067a17.013,17.013,0,0,0,17.013-17.013V58.711a5.671,5.671,0,0,1,11.342,0V87.067A28.356,28.356,0,0,1,87.067,115.423Z" transform="translate(-2 -2)" fill="#edebea"/>
        <path id="Path_57064" data-name="Path 57064" d="M34.817,60.46a5.671,5.671,0,0,1-3.97-1.645L8.957,37.321a5.671,5.671,0,1,1,7.94-8.053L34.817,46.849,77.011,5.393a5.671,5.671,0,0,1,7.94,8.053L38.787,58.815a5.671,5.671,0,0,1-3.97,1.645Z" transform="translate(21.1 7.594)" fill="#00a1a2"/>
      </g>
    </g>
  </g>
</svg>
