<svg xmlns="http://www.w3.org/2000/svg" width="23.18" height="23.18" viewBox="0 0 23.18 23.18" fill="#008BC5">
  <g id="svgexport-10_75_" data-name="svgexport-10 (75)" transform="translate(-0.004)">
    <g id="Group_9149" data-name="Group 9149" transform="translate(0.004)">
      <g id="Group_9148" data-name="Group 9148" transform="translate(0)">
        <path id="Path_57328" data-name="Path 57328" d="M11.476,4.492l2.056-1.634-2.443.965C7.434,5.266,6.94,5.134,4.5,2.056L2.862,0l.965,2.443C5.27,6.1,5.138,6.591,2.06,9.036L0,10.67,2.447,9.7C6.1,8.261,6.6,8.393,9.04,11.472l1.634,2.056-.965-2.443C8.266,7.43,8.4,6.937,11.476,4.492Zm-3.19,4.9a3.549,3.549,0,0,0-2.65-1.355,5.57,5.57,0,0,0-1.5.244A3.527,3.527,0,0,0,5.251,4.136,3.527,3.527,0,0,0,9.4,5.247,3.527,3.527,0,0,0,8.285,9.392Z" transform="translate(-0.004)"/>
      </g>
    </g>
    <g id="Group_9151" data-name="Group 9151" transform="translate(3.241 13)">
      <g id="Group_9150" data-name="Group 9150">
        <path id="Path_57329" data-name="Path 57329" d="M74.423,270.073l2.056-1.634-2.443.965c-2.236.883-2.458.823-3.952-1.059l-1.633-2.057.964,2.443c.883,2.236.823,2.457-1.059,3.952L66.3,274.317l2.443-.965c2.236-.883,2.458-.823,3.952,1.059l1.633,2.057-.964-2.443C72.481,271.789,72.541,271.568,74.423,270.073Zm-2.336,2.514a2.058,2.058,0,0,0-1.4-.559,2.879,2.879,0,0,0-.507.049,2.086,2.086,0,0,0,.511-1.906,2.086,2.086,0,0,0,1.906.51A2.086,2.086,0,0,0,72.087,272.586Z" transform="translate(-66.3 -266.288)"/>
      </g>
    </g>
    <g id="Group_9153" data-name="Group 9153" transform="translate(13.004 4.408)">
      <g id="Group_9152" data-name="Group 9152">
        <path id="Path_57330" data-name="Path 57330" d="M274.423,94.073l2.056-1.634-2.443.965c-2.236.883-2.458.823-3.952-1.059l-1.633-2.057.964,2.443c.883,2.236.823,2.457-1.059,3.952L266.3,98.317l2.443-.965c2.236-.883,2.458-.823,3.952,1.059l1.633,2.057-.964-2.443C272.481,95.789,272.541,95.568,274.423,94.073Zm-2.336,2.514a2.058,2.058,0,0,0-1.4-.559,2.883,2.883,0,0,0-.507.049,2.086,2.086,0,0,0,.511-1.906,2.086,2.086,0,0,0,1.906.51A2.086,2.086,0,0,0,272.087,96.586Z" transform="translate(-266.3 -90.288)"/>
      </g>
    </g>
  </g>
</svg>
