<svg xmlns="http://www.w3.org/2000/svg" width="24.749" height="26.901" viewBox="0 0 24.749 26.901">
  <g id="svgexport-7_32_" data-name="svgexport-7 (32)" transform="translate(0 26.901) rotate(-90)">
    <path id="Path_57676" data-name="Path 57676" d="M23.2,0H3.7A3.7,3.7,0,0,0,0,3.7V15.634a3.7,3.7,0,0,0,3.685,3.7v5.416l7.784-5.416H23.2a3.7,3.7,0,0,0,3.7-3.7V3.7A3.7,3.7,0,0,0,23.2,0Zm2.122,15.634A2.125,2.125,0,0,1,23.2,17.757H10.975L5.261,21.732V17.757H3.7a2.125,2.125,0,0,1-2.122-2.122V3.7A2.124,2.124,0,0,1,3.7,1.576H23.2A2.124,2.124,0,0,1,25.325,3.7Zm0,0" transform="translate(0 0)" fill="#fff"/>
    <path id="Path_57677" data-name="Path 57677" d="M0,0H15.81V1.993H0ZM0,0" transform="translate(5.545 5.469)" fill="#fff"/>
    <path id="Path_57678" data-name="Path 57678" d="M0,0H15.81V1.993H0ZM0,0" transform="translate(5.545 8.771)" fill="#fff"/>
    <path id="Path_57679" data-name="Path 57679" d="M0,0H15.81V1.993H0ZM0,0" transform="translate(5.545 12.073)" fill="#fff"/>
  </g>
</svg>
