<svg id="svgexport-10_-_2022-05-25T213426.493" data-name="svgexport-10 - 2022-05-25T213426.493" xmlns="http://www.w3.org/2000/svg" width="23.84" height="23.84" viewBox="0 0 23.84 23.84">
  <path id="Path_57053" data-name="Path 57053" d="M11.92,0A11.92,11.92,0,1,0,23.84,11.92,11.92,11.92,0,0,0,11.92,0ZM22.229,16.1l-3.39.585a17.788,17.788,0,0,0,.624-4.363h3.572a11.051,11.051,0,0,1-.806,3.778ZM.8,12.317H4.377A17.788,17.788,0,0,0,5,16.681L1.611,16.1A11.051,11.051,0,0,1,.8,12.317Zm.806-4.573L5,7.159a17.788,17.788,0,0,0-.624,4.363H.8a11.051,11.051,0,0,1,.806-3.778ZM12.317,6.38a27.333,27.333,0,0,1,4.259.389l1.4.242a17.055,17.055,0,0,1,.689,4.512H12.317Zm4.395-.394a28.164,28.164,0,0,0-4.395-.4V.817c2.278.219,4.257,2.3,5.378,5.34Zm-5.189-.4a28.159,28.159,0,0,0-4.394.4l-.983.17c1.121-3.036,3.1-5.122,5.378-5.34ZM7.263,6.769a27.326,27.326,0,0,1,4.259-.389v5.143H5.171A17.055,17.055,0,0,1,5.861,7.01ZM5.171,12.317h6.351V17.46a27.334,27.334,0,0,1-4.259-.389l-1.4-.242a17.055,17.055,0,0,1-.689-4.512Zm1.956,5.537a28.258,28.258,0,0,0,4.395.4v4.768c-2.278-.219-4.257-2.3-5.378-5.34Zm5.189.4a28.256,28.256,0,0,0,4.394-.4l.983-.17c-1.121,3.036-3.1,5.122-5.378,5.34Zm4.259-1.186a27.326,27.326,0,0,1-4.259.389V12.317h6.351a17.055,17.055,0,0,1-.689,4.512Zm2.886-5.549a17.788,17.788,0,0,0-.624-4.363l3.39.585a11.051,11.051,0,0,1,.806,3.778Zm2.364-4.654-3.249-.561a10.956,10.956,0,0,0-3.161-4.947,11.178,11.178,0,0,1,6.411,5.507ZM8.423,1.361A10.956,10.956,0,0,0,5.262,6.308l-3.249.561A11.178,11.178,0,0,1,8.423,1.361ZM2.013,16.971l3.249.561a10.956,10.956,0,0,0,3.161,4.947,11.178,11.178,0,0,1-6.411-5.507Zm13.4,5.507a10.956,10.956,0,0,0,3.161-4.947l3.249-.561a11.178,11.178,0,0,1-6.411,5.507Zm0,0"/>
</svg>
